<?xml version="1.0" encoding="UTF-8" standalone="no"?><!DOCTYPE svg PUBLIC "-//W3C//DTD SVG 1.1//EN" "http://www.w3.org/Graphics/SVG/1.1/DTD/svg11.dtd"><svg width="100%" height="100%" viewBox="0 0 801 386" version="1.1" xmlns="http://www.w3.org/2000/svg" xmlns:xlink="http://www.w3.org/1999/xlink" xml:space="preserve" xmlns:serif="http://www.serif.com/" style="fill-rule:evenodd;clip-rule:evenodd;stroke-linejoin:round;stroke-miterlimit:2;"><rect id="letsproject_Logo_beige" x="0.397" y="0.763" width="800" height="385.1" style="fill:none;"/><clipPath id="_clip1"><rect x="0.397" y="0.763" width="800" height="385.1"/></clipPath><g clip-path="url(#_clip1)"><g id="Warstwa-1" serif:id="Warstwa 1"></g><g><g><path d="M300.786,160.707l-26.156,-8.391l-10.253,-25.279l-0,-104.765l-34.986,-0l0,-21.509l56.494,0l-0,122.379l4.92,12.38l9.734,3.199l7.951,-3.092l10.52,-10.522l17.202,13.13l-15.979,15.662l-19.447,6.808Z" style="fill:#f6f4f1;"/><path d="M366.689,109.66l2.16,10.526l6.399,10.028l8.699,6.358l12.442,2.42l12.387,-1.947l8.782,-4.478l12.89,-12.894l15.26,15.264l-15.506,15.213l-14.677,7.34l-19.299,3.407l-21.225,-4.154l-15.592,-11.873l-10.772,-16.504l-4.232,-20.477l-0,-18.266l3.804,-16.556l8.84,-16.314l13.588,-12.205l16.737,-6.743l16.84,-0l14.941,5.137l13.665,10.654l9.049,14.613l3.834,17.136l0,24.315l-79.014,-0Zm0.12,-21.537l57.591,0l-0,-0.468l-2.498,-11.236l-5.24,-8.111l-7.871,-6.157l-8.175,-2.835l-9.161,-0l-9.422,3.7l-7.886,7.197l-5.687,10.482l-1.651,7.428Z" style="fill:#f6f4f1;"/><path d="M554.391,149.039l-11.88,8.316l-17.928,3.775l-17.002,-3.592l-17.273,-12.962l-7.56,-24.346l0,-60.121l-21.284,-0l0,-21.486c0,0 21.284,0 21.284,0l0,-29.674l21.485,0c0,0 0,29.674 0,29.674l32.335,0l0,21.486l-32.335,-0l0,56.875l4.674,14.367l7.742,5.884l7.991,1.724l9.098,-1.788l6.072,-4.154l9.784,-12.155l17.093,13.044l-12.296,15.133Z" style="fill:#f6f4f1;"/><path d="M627.386,160.619l-19.431,-2.457l-17.956,-9.438l-15.083,-18.565l16.624,-13.479l12.333,15.014l10.717,5.531l13.491,1.823l14.526,-1.287l10.565,-4.771l4.599,-5.49l1.33,-5.584l-1.875,-5.358l-4.024,-4.163l-9.496,-3.052l-32.167,-3.483l-14.555,-4.93l-12.123,-11.877l-4.315,-16.243l5.275,-17.583l11.951,-10l14.716,-6.899l20.135,-1.79l19.332,2.889l14.767,6.922l15.093,14.792l-14.841,15.291l-12.692,-12.129l-8.578,-3.946l-13.862,-2.033l-13.807,1.09l-8.568,4.113l-4.864,4.127l-1.683,5.567l1.211,4.602l4.435,4.297l7.778,2.648l32.257,3.675l16.255,5.109l11.143,11.391l5.495,15.736l-3.989,16.707l-10.916,13.1l-18.314,8.578l-20.889,1.555Z" style="fill:#f6f4f1;"/><path d="M27.281,230.827l2.233,-3.544l23.999,-8.551l20.348,3.312l17.668,11.85l11.803,19.086l4.447,19.39l-0,19.713l-6.273,21.334l-13.102,16.558l-18.135,9.865l-20.482,3.024l-18.138,-6.445l0,42.103l-21.485,-0l-0,-134.719l-9.767,-10.603l16.616,-13.922l10.268,11.549Zm59.013,58.159l-0,-14.064l-3.12,-13.573l-7.415,-12.174l-10.127,-6.578l-10.227,-1.623c0,0 -12.99,4.494 -12.99,4.494l-10.766,13.45l0,49.279l8.997,8.676l11.287,4.148l11.458,-2.021l10.823,-5.758l7.925,-9.815l4.155,-14.441Z" style="fill:#f6f4f1;"/><path d="M151.64,230.547l18.977,-11.606l17.482,-0.472l16.39,3.971l14.07,11.624l8.012,20.34l-19.606,7.751l-6.114,-15.007l-6.233,-5.017l-9.006,-2.334l-8.62,0.319l-13.798,8.733l-11.006,16.331l0,72.412l-21.485,-0l-0,-94.773l-12.182,-7.952l11.26,-17.969l21.859,13.649Z" style="fill:#f6f4f1;"/><path d="M269.466,338.606l-16.094,-12.597l-9.81,-17.568l-4.19,-20.289l0,-14.339l5.278,-23.535l10.284,-15.998l15.151,-12.121l19.739,-3.995l19.525,3.999l15.145,12.117l10.284,15.998l5.279,23.535l-0,14.339l-4.19,20.289l-9.81,17.568l-16.089,12.592l-20.144,4.451l-20.358,-4.446Zm9.331,-20.079l11.02,2.338l10.992,-2.332l8.598,-6.615l5.977,-11.075l3.165,-14.335l-0,-10.966l-3.915,-16.776l-6.301,-9.804l-8.357,-6.686l-10.168,-1.968l-10.362,1.974l-8.35,6.68l-6.302,9.804l-3.914,16.776l0,10.966l3.165,14.335l5.963,11.05l8.789,6.634Z" style="fill:#f6f4f1;"/><path d="M371.439,385.904l-17.191,-5.733l-14.191,-16.354l15.749,-14.403l10.67,12.078l6.161,2.054l6.481,-1.486l6.683,-7.14l3.409,-15.617l0,-115.724l56.084,-0l0,21.511l-34.576,-0l0,96.698l-5.197,23.96l-15.682,15.927l-18.4,4.229Z" style="fill:#f6f4f1;"/><path d="M483.544,291.571l2.161,10.526l6.398,10.028l8.699,6.359l12.442,2.42l12.388,-1.948l8.781,-4.478l12.89,-12.893l15.26,15.264l-15.506,15.212l-14.677,7.34l-19.299,3.407l-21.224,-4.154l-15.593,-11.872l-10.772,-16.505l-4.232,-20.477l-0,-18.266l3.805,-16.556l8.839,-16.314l13.589,-12.205l16.736,-6.743l16.84,0l14.941,5.137l13.665,10.655l9.049,14.612l3.835,17.136l-0,24.315l-79.015,-0Zm0.12,-21.537l57.591,0l-0,-0.468l-2.498,-11.235l-5.24,-8.112l-7.87,-6.157l-8.176,-2.835l-9.161,-0l-9.422,3.7l-7.886,7.198l-5.687,10.481l-1.651,7.428Z" style="fill:#f6f4f1;"/><path d="M630.425,342.387l-19.855,-4.156l-16.674,-12.274l-10.474,-17.078l-4.693,-18.551l0,-18.224l4.465,-17.863l8.391,-14.514l13.5,-13.044l17.256,-6.762l15.404,-0l16.372,4.548l12.125,7.928l12.703,15.182l-16.283,13.57l-10.81,-12.565l-6.702,-4.524l-10.173,-2.631l-8.835,0l-9.311,3.492l-8.144,7.971l-5.339,9.433l-3.111,12.445l0,12.913l3.1,12.946l6.483,10.515l9.724,7.165l11.425,2.388l11.247,-1.731l10.431,-5.658l14.99,-14.99l14.982,14.982l-16.931,17.214l-16.402,9.113l-18.861,2.76Z" style="fill:#f6f4f1;"/><path d="M788.102,330.951l-11.881,8.316l-17.928,3.774l-17.001,-3.592l-17.274,-12.962l-7.559,-24.346l-0,-60.121l-21.284,-0l-0,-21.485c-0,-0 21.284,-0 21.284,-0l-0,-29.675l21.485,0c-0,0 -0,29.675 -0,29.675l32.335,-0l-0,21.485l-32.335,-0l-0,56.876l4.673,14.366l7.743,5.884l7.99,1.724l9.099,-1.787l6.072,-4.155l9.783,-12.155l17.093,13.045l-12.295,15.133Z" style="fill:#f6f4f1;"/></g><path d="M106.13,96.729l-31.989,63.978l0,-63.978l-63.977,-15.994l63.977,-15.994l0,-63.978l31.989,63.978l31.989,-63.978l-0,63.978l63.977,15.994l-63.977,15.994l-0,63.978l-31.989,-63.978Z" style="fill:#f6f4f1;"/></g></g></svg>