<svg width="400" height="300" viewBox="0 0 400 300" fill="none" xmlns="http://www.w3.org/2000/svg">
<path fill-rule="evenodd" clip-rule="evenodd" d="M53.4697 116.617C53.4697 111.31 57.7792 107 63.0871 107C68.3949 107 72.7045 111.31 72.7045 116.617H72.767C78.046 116.651 82.3219 120.947 82.3219 126.235C82.3219 131.543 78.0124 135.852 72.7045 135.852V135.913H111.174C111.174 155.542 96.472 171.726 77.5132 173.991V191.145C77.5132 192.477 76.437 193.557 75.1089 193.557H65.4914C64.1642 193.557 63.0871 192.476 63.0871 191.145C63.0871 189.814 64.1642 188.733 65.4914 188.733H72.7045V174.261H55.874V191.145C55.874 192.477 54.7978 193.557 53.4697 193.557H43.8523C42.5251 193.557 41.4479 192.476 41.4479 191.145C41.4479 189.814 42.5251 188.733 43.8523 188.733H51.0653V174.138C46.824 173.651 42.8453 171.74 39.7966 168.682C36.2353 165.11 34.2348 160.265 34.2348 155.213V135.913L15 116.617H53.4697ZM53.4697 126.024C58.7775 126.024 63.0871 130.346 63.0871 135.671C63.0871 140.996 58.7775 145.319 53.4697 145.319C48.1618 145.319 43.8523 140.996 43.8523 135.671C43.8523 130.346 48.1618 126.024 53.4697 126.024Z" fill="#1D1E22"/>
<path d="M156.822 135.385V129.748H135.163V160.819H140.977V148.967H154.381V143.375H140.977V135.385H156.822Z" fill="#1D1E22"/>
<path d="M161.307 155.448C161.307 158.91 163.971 160.819 169.029 160.819H172.316V155.759H169.565C167.522 155.759 166.768 155.182 166.768 153.362V128.638H161.307V155.448Z" fill="#1D1E22"/>
<path d="M182.081 138.625H175.423L186.03 160.019L184.657 162.683C183.367 165.08 182.391 166.5 179.728 166.5H176.223V171.915H182.257C185.989 171.915 188.074 168.986 190.071 164.68C190.737 163.26 191.357 162.15 192.023 160.774L202.81 138.625H196.152L190.381 151.053C189.627 152.651 189.627 154.915 189.627 156.69H188.606C188.606 154.915 188.606 152.651 187.852 151.053L182.081 138.625Z" fill="#1D1E22"/>
<path d="M221.231 161.485C230.419 161.485 235.126 157.312 235.967 150.388H230.109C229.355 153.007 227.621 155.892 221.097 155.892C215.327 155.892 210.888 151.941 210.888 145.283C210.888 138.581 215.373 134.674 221.097 134.674C227.311 134.674 228.999 137.56 229.711 140.178H235.57C234.945 134.231 230.507 129.082 221.056 129.082C211.864 129.082 205.076 136.006 205.076 145.239C205.076 154.516 211.956 161.485 221.231 161.485Z" fill="#1D1E22"/>
<path d="M239.162 149.677C239.162 156.824 244.179 161.529 251.812 161.529C259.492 161.529 264.509 156.557 264.509 149.677C264.509 142.842 259.492 137.959 251.812 137.959C244.179 137.959 239.162 142.531 239.162 149.677ZM244.932 149.677C244.932 146.038 246.888 143.197 251.812 143.197C256.741 143.197 258.739 146.038 258.739 149.677C258.739 153.317 256.741 156.291 251.812 156.291C246.93 156.291 244.932 153.317 244.932 149.677Z" fill="#1D1E22"/>
<path d="M275.56 139.779C274.141 140.889 273.521 143.286 272.855 144.972L271.921 144.573C272.587 142.886 273.475 140.755 273.475 138.98V138.625H268.06V160.819H273.475V149.5C273.475 145.239 276.494 143.33 280.045 143.33C283.286 143.33 284.84 145.239 284.84 149.5V160.819H290.301V145.594C290.301 140.533 286.791 137.959 282.264 137.959C279.379 137.959 277.428 138.314 275.56 139.779Z" fill="#1D1E22"/>
<path d="M298.864 153.361C298.864 156.912 300.288 160.819 304.458 160.819H309.831V155.758H307.209C305.124 155.758 304.283 155.226 304.283 153.361V143.374H310.053V138.625H304.283V130.235H298.864V138.625H294.425V143.374H298.864V153.361Z" fill="#1D1E22"/>
<path d="M326.787 161.529C333.755 161.529 337.037 156.779 337.703 154.471H331.489C331.045 155.581 329.228 156.868 326.255 156.868C321.682 156.868 319.463 153.805 319.463 151.364L338.147 151.408C338.193 151.009 338.193 149.944 338.193 149.5C338.24 143.374 333.445 137.959 325.719 137.959C318.219 137.959 312.938 142.975 312.938 149.589C312.938 156.202 317.775 161.529 326.787 161.529ZM319.463 147.724C319.463 144.928 322.08 142.265 325.853 142.265C329.584 142.265 331.845 144.662 331.845 147.724H319.463Z" fill="#1D1E22"/>
<path d="M349.512 139.779C348.093 140.889 347.468 143.286 346.803 144.972L345.873 144.573C346.539 142.886 347.427 140.755 347.427 138.98V138.625H342.012V160.819H347.427V149.5C347.427 145.239 350.446 143.33 353.997 143.33C357.234 143.33 358.787 145.239 358.787 149.5V160.819H364.248V145.594C364.248 140.533 360.743 137.959 356.217 137.959C353.331 137.959 351.376 138.314 349.512 139.779Z" fill="#1D1E22"/>
<path d="M372.816 153.361C372.816 156.912 374.235 160.819 378.41 160.819H383.779V155.758H381.162C379.076 155.758 378.23 155.226 378.23 153.361V143.374H384.001V138.625H378.23V130.235H372.816V138.625H368.377V143.374H372.816V153.361Z" fill="#1D1E22"/>
</svg>
