<svg width="400" height="300" viewBox="0 0 400 300" fill="none" xmlns="http://www.w3.org/2000/svg">
<path fill-rule="evenodd" clip-rule="evenodd" d="M161.681 146.472V126.296C161.681 125.163 162.037 124.284 162.605 123.623C163.401 122.698 164.682 122.176 166.268 122.176C167.863 122.176 169.121 122.708 169.898 123.642C170.444 124.294 170.781 125.168 170.781 126.296V172.039C170.781 173.746 170.291 175.101 169.417 176.053C168.52 177.029 167.197 177.625 165.399 177.625C163.979 177.625 162.915 177.371 162.018 176.89C160.756 176.21 159.794 175.036 158.629 173.177C158.629 173.172 158.629 173.172 158.629 173.172L140.982 144.604C139.558 142.324 137.94 139.401 136.511 136.659C136.756 141.246 136.955 147.054 136.955 153.061V173.505C136.955 174.601 136.608 175.475 136.044 176.141C135.248 177.08 133.977 177.625 132.437 177.625C130.855 177.625 129.574 177.075 128.779 176.146C128.205 175.48 127.854 174.601 127.854 173.505V127.558C127.854 125.898 128.432 124.566 129.408 123.632C130.36 122.726 131.729 122.176 133.436 122.176C137.075 122.176 138.467 123.595 140.002 126.018C140.007 126.023 140.011 126.028 140.011 126.032L156.793 153.269C158.55 156.132 160.52 159.688 162.217 162.916C161.93 158.259 161.681 152.354 161.681 146.472ZM207.683 159.91H185.699C185.995 163.669 187.239 166.624 189.44 168.442C191.036 169.764 193.116 170.453 195.632 170.453C199.762 170.453 202.051 168.381 203.424 165.343C203.433 165.325 203.438 165.311 203.447 165.297C204.344 163.498 205.685 162.865 207.086 162.865C207.678 162.865 208.275 163.013 208.867 163.184C208.867 163.184 208.871 163.184 208.876 163.184C210.61 163.697 211.937 165.01 211.937 166.846C211.937 167.475 211.817 168.099 211.429 168.724C209.107 173.473 204.922 178.222 195.567 178.222C189.653 178.222 184.996 176.099 181.801 172.446C178.661 168.853 176.931 163.734 176.931 157.593C176.931 150.208 179.308 144.187 183.655 140.525C186.596 138.046 190.457 136.627 195.165 136.627C205.694 136.627 211.678 144.779 212.395 154.222C212.4 154.259 212.4 154.291 212.4 154.328V154.86C212.4 156.483 211.914 157.704 211.137 158.536C210.319 159.415 209.153 159.91 207.683 159.91ZM203.512 152.275C202.726 148.294 200.312 144.261 195.165 144.261C190.069 144.261 187.165 147.415 186.092 152.275H203.512ZM220.816 137.561V130.888C220.816 129.556 221.297 128.553 222.088 127.864C222.823 127.221 223.873 126.837 225.2 126.837C226.43 126.837 227.484 127.207 228.238 127.85C229.061 128.543 229.583 129.556 229.583 130.888V137.561H236.719C238.027 137.561 238.975 138.032 239.618 138.763C240.224 139.457 240.571 140.428 240.571 141.612C240.571 142.763 240.201 143.725 239.577 144.414C238.925 145.135 237.972 145.593 236.719 145.593H229.583V166.513C229.583 167.72 229.764 168.599 230.249 169.158C230.661 169.63 231.285 169.787 232.058 169.787C233.426 169.787 234.351 169.394 235.281 168.849C235.308 168.83 235.336 168.816 235.364 168.802C235.97 168.502 236.58 168.321 237.186 168.321C238.73 168.321 240.039 169.366 240.663 170.911C240.931 171.549 241.033 172.271 241.033 172.909C241.033 174.319 240.414 175.72 238.901 176.529C238.888 176.539 238.869 176.548 238.851 176.553C236.747 177.57 234.781 178.157 231.655 178.157C228.538 178.157 225.861 177.325 223.937 175.549C222.023 173.773 220.816 171.031 220.816 167.045V145.593H217.005C215.715 145.593 214.795 145.112 214.18 144.372C213.611 143.693 213.288 142.744 213.288 141.612C213.288 140.224 213.764 139.087 214.624 138.375C215.225 137.88 216.025 137.561 217.075 137.561H220.816ZM269.278 177.223H252.834C249.99 177.223 248.002 176.506 246.689 175.128C245.403 173.773 244.719 171.697 244.719 168.71V131.156C244.719 128.136 245.403 126.046 246.689 124.687C247.997 123.295 249.99 122.578 252.834 122.578H268.548C273.731 122.578 277.801 123.873 280.589 126.194C283.47 128.59 285.052 132.086 285.052 136.548C285.052 140.049 284.261 142.823 282.712 144.987C281.792 146.277 280.594 147.36 279.11 148.243C281.121 149.131 282.74 150.37 283.97 151.928C285.856 154.319 286.851 157.496 286.851 161.454C286.851 166.43 285.177 170.37 282.138 173.075C279.16 175.734 274.814 177.223 269.278 177.223ZM253.685 152.719V168.113C253.685 168.409 253.676 168.654 253.819 168.802C253.949 168.936 254.162 168.923 254.43 168.923H268.548C271.489 168.923 273.768 168.257 275.29 166.855C276.774 165.496 277.482 163.461 277.482 160.853C277.482 158.185 276.76 156.136 275.257 154.772C273.708 153.371 271.396 152.719 268.414 152.719H253.685ZM253.685 144.483H268.215C270.661 144.483 272.612 143.85 273.935 142.601C275.23 141.376 275.882 139.577 275.882 137.348C275.882 135.23 275.304 133.602 274.046 132.525C272.714 131.387 270.707 130.879 268.081 130.879H254.231C254.06 130.879 253.916 130.879 253.829 130.976C253.699 131.124 253.685 131.355 253.685 131.623V144.483ZM314.573 150.906V149.399C314.573 148.016 314.319 146.929 313.694 146.139C312.705 144.895 310.906 144.46 308.303 144.46C304.229 144.46 302.162 145.917 301.214 148.483C300.511 150.388 299.022 151.119 297.315 151.119C296.612 151.119 295.919 151.022 295.308 150.772C293.454 150.166 292.196 148.705 292.196 146.939C292.196 146.56 292.279 146.18 292.372 145.801C292.381 145.773 292.39 145.741 292.4 145.713C293.149 143.392 295.068 141.2 296.793 139.85C296.793 139.85 296.797 139.85 296.802 139.845C299.318 137.903 302.541 136.627 308.367 136.627C313.237 136.627 316.853 137.667 319.267 139.702C321.759 141.801 323.073 144.978 323.073 149.399V167.582C323.073 169.741 323.368 171.836 323.734 173.001C323.845 173.329 323.937 173.773 323.937 174.106C323.937 175.753 322.573 177.413 319.997 177.621C319.96 177.621 319.923 177.625 319.886 177.625H319.29C317.251 177.625 315.558 176.784 315.142 174.957C315.096 174.768 315.049 174.555 315.008 174.324C312.432 176.493 308.913 178.157 303.442 178.157C299.373 178.157 296.113 176.964 293.856 174.865C291.567 172.733 290.268 169.649 290.268 165.783C290.268 158.851 294.337 154.375 301.343 152.46V152.456C304.853 151.498 308.182 151.068 314.573 150.906ZM314.573 161.519V158.49C308.071 158.717 304.848 159.304 302.462 160.497C300.303 161.579 299.17 163.253 299.17 165.847C299.17 168.543 301.329 170.254 304.441 170.254C308.168 170.254 311.248 168.419 313.144 166.051C314.203 164.71 314.573 163.642 314.573 161.519ZM345.657 161.02L341.866 160.284C336.506 159.239 333.079 157.598 331.156 155.04C329.815 153.26 329.153 151.017 329.153 148.136C329.153 141.39 334.763 136.562 344.326 136.562C352.464 136.562 357.588 140.136 359.424 145.487C359.438 145.528 359.447 145.565 359.456 145.602C359.549 145.982 359.632 146.361 359.632 146.735C359.632 148.627 358.074 150.042 356.284 150.536C356.252 150.546 356.219 150.555 356.187 150.56C355.766 150.643 355.267 150.721 354.846 150.721C353.038 150.721 351.294 149.815 350.777 147.901C350.064 145.477 347.6 144.395 344.525 144.395C340.229 144.395 337.99 145.773 337.99 148.002C337.99 148.687 338.046 149.255 338.277 149.736C338.522 150.25 338.975 150.629 339.674 150.98C340.622 151.461 341.944 151.854 343.748 152.238L347.873 153.103C353.505 154.273 357.061 155.841 359.04 158.458C360.423 160.275 361.098 162.62 361.098 165.783C361.098 172.849 355.23 178.291 344.927 178.291C335.614 178.291 330.236 174.444 328.344 167.97C328.335 167.928 328.326 167.891 328.316 167.854C328.229 167.415 328.155 167.064 328.155 166.712C328.155 164.714 329.755 163.225 331.655 162.828C331.66 162.828 331.664 162.823 331.669 162.823C332.099 162.74 332.529 162.661 332.871 162.661C334.753 162.661 336.464 163.554 337.061 165.431V165.436C337.556 167.027 338.337 168.234 339.563 169.029C340.867 169.875 342.624 170.254 344.927 170.254C347.267 170.254 349.209 169.778 350.555 168.895C351.664 168.164 352.33 167.147 352.33 165.917C352.33 163.212 350.675 162.009 345.657 161.02ZM394.869 159.91H372.881C373.177 163.669 374.425 166.624 376.622 168.442C378.217 169.764 380.303 170.453 382.814 170.453C386.943 170.453 389.232 168.381 390.61 165.343C390.615 165.325 390.624 165.311 390.633 165.297C391.53 163.498 392.871 162.865 394.268 162.865C394.86 162.865 395.456 163.013 396.048 163.184C396.053 163.184 396.057 163.184 396.057 163.184C397.796 163.697 399.119 165.01 399.119 166.846C399.119 167.475 399.003 168.099 398.61 168.724C396.289 173.473 392.104 178.222 382.749 178.222C376.834 178.222 372.178 176.099 368.987 172.446C365.842 168.853 364.113 163.734 364.113 157.593C364.113 150.208 366.49 144.187 370.837 140.525C373.782 138.046 377.639 136.627 382.351 136.627C392.876 136.627 398.86 144.779 399.581 154.222C399.581 154.259 399.586 154.291 399.586 154.328V154.86C399.586 156.483 399.1 157.704 398.323 158.536C397.505 159.415 396.335 159.91 394.869 159.91ZM390.693 152.275C389.907 148.294 387.498 144.261 382.351 144.261C377.251 144.261 374.347 147.415 373.278 152.275H390.693Z" fill="#1D1E22"/>
<path fill-rule="evenodd" clip-rule="evenodd" d="M23.1169 196.463H17.7698C7.9632 196.463 0.000976562 188.501 0.000976562 178.694C0.000976562 175.003 1.1293 171.573 3.059 168.731C4.66486 166.374 4.66486 163.276 3.059 160.919C1.1293 158.077 0.000976562 154.647 0.000976562 150.956C0.000976562 145.352 2.60056 140.351 6.65808 137.093C8.32435 135.747 9.26921 133.701 9.21413 131.559C9.25011 131.378 9.24744 131.197 9.24744 131.015C9.24744 121.208 17.2092 113.246 27.0163 113.246C27.3757 113.246 27.7328 113.257 28.0869 113.278C29.5355 113.359 30.9232 112.687 31.7579 111.501C34.963 106.958 40.255 104 46.2324 104C51.8292 104 56.8249 106.593 60.0828 110.642C61.391 112.26 63.3607 113.199 65.4414 113.199C65.4437 113.246 65.4463 113.246 65.449 113.246C75.2561 113.246 83.2178 121.208 83.2178 131.015C83.2178 131.562 83.193 132.103 83.1445 132.637C83.0131 134.132 83.6896 135.584 84.9197 136.445C89.4858 139.65 92.4643 144.958 92.4643 150.956C92.4643 154.647 91.336 158.077 89.4063 160.919C87.8004 163.276 87.8004 166.374 89.4063 168.731C91.336 171.573 92.4643 175.003 92.4643 178.694C92.4643 188.501 84.5021 196.463 74.6955 196.463H69.3484V153.066C69.3484 140.308 58.9905 129.95 46.2324 129.95C33.4748 129.95 23.1169 140.308 23.1169 153.066V196.463Z" fill="#1D1E22"/>
<path fill-rule="evenodd" clip-rule="evenodd" d="M30.052 173.352C30.052 165.574 35.553 159.066 42.8755 157.522C39.2427 156.154 36.6552 152.645 36.6552 148.531C36.6552 143.24 40.9504 138.939 46.234 138.939C51.5228 138.939 55.818 143.24 55.818 148.531C55.818 152.645 53.2305 156.154 49.5977 157.522C56.915 159.066 62.416 165.574 62.416 173.352V196.463H30.052V173.352Z" fill="#1D1E22"/>
</svg>
