<svg width="400" height="300" viewBox="0 0 400 300" fill="none" xmlns="http://www.w3.org/2000/svg">
<path fill-rule="evenodd" clip-rule="evenodd" d="M28.7292 152.555C28.5557 153.161 28.677 153.812 29.0561 154.314C29.4351 154.817 30.0278 155.112 30.6576 155.112C36.8369 155.112 52.1097 155.112 58.289 155.112C58.9188 155.112 59.5115 154.817 59.8905 154.314C60.2696 153.812 60.3909 153.161 60.2174 152.555C58.1516 145.325 52.2832 124.786 50.2174 117.556C50.0449 116.951 50.1662 116.3 50.5453 115.797C50.9244 115.295 51.517 115 52.1458 115C56.4108 115 64.6429 115 68.0303 115C68.9259 115 69.713 115.594 69.9587 116.454C72.4698 125.242 85.6126 171.243 88.8697 182.64C89.0422 183.245 88.9209 183.896 88.5418 184.399C88.1628 184.901 87.5701 185.197 86.9413 185.197C82.6764 185.197 74.4443 185.197 71.0568 185.197C70.1613 185.197 69.3741 184.603 69.1284 183.742C68.5849 181.839 67.6372 178.525 67.0937 176.623C66.848 175.762 66.0608 175.169 65.1653 175.169C58.3562 175.169 30.5904 175.169 23.7813 175.169C22.8858 175.169 22.0986 175.762 21.8529 176.623C21.3094 178.525 20.3617 181.839 19.8182 183.742C19.5725 184.603 18.7853 185.197 17.8898 185.197C14.5023 185.197 6.27022 185.197 2.00526 185.197C1.3765 185.197 0.783833 184.901 0.40477 184.399C0.0257077 183.896 -0.0955977 183.245 0.0768858 182.64C3.33401 171.243 16.4768 125.242 18.9879 116.454C19.2335 115.594 20.0207 115 20.9162 115C24.3037 115 32.5358 115 36.8008 115C37.4296 115 38.0222 115.295 38.4013 115.797C38.7803 116.3 38.9017 116.951 38.7292 117.556C36.6634 124.786 30.7949 145.325 28.7292 152.555Z" fill="#1D1E22"/>
<path d="M130.753 170.454H129.018C125.219 170.454 122.28 169.456 120.215 167.461C118.143 165.388 117.106 162.472 117.106 158.711V145.433C117.106 141.595 118.143 138.679 120.215 136.683C122.28 134.611 125.219 133.613 129.018 133.613H145.697C146.756 133.613 147.285 134.151 147.285 135.148V168.919C147.285 169.917 146.756 170.454 145.697 170.454H139.633C138.628 170.454 138.121 169.917 138.121 168.919V166.54H137.829C137.3 167.844 136.364 168.842 135.013 169.456C133.67 170.147 132.25 170.454 130.753 170.454ZM138.121 157.023V142.363C138.121 141.825 137.829 141.595 137.254 141.595H130.469C128.926 141.595 127.844 141.902 127.215 142.516C126.593 143.207 126.278 144.282 126.278 145.817V158.251C126.278 159.786 126.593 160.86 127.215 161.551C127.844 162.165 128.926 162.472 130.469 162.472H133.14C136.456 162.472 138.121 160.707 138.121 157.023Z" fill="#1D1E22"/>
<path d="M168.515 170.454H166.136C162.428 170.454 159.619 169.456 157.724 167.461C155.82 165.388 154.868 162.472 154.868 158.711V135.148C154.868 134.151 155.375 133.613 156.388 133.613H162.521C163.534 133.613 164.04 134.151 164.04 135.148V158.251C164.04 159.786 164.363 160.86 165.015 161.551C165.667 162.165 166.734 162.472 168.231 162.472H170.902C174.218 162.472 175.883 160.707 175.883 157.023V135.148C175.883 134.151 176.39 133.613 177.395 133.613H183.459C184.518 133.613 185.047 134.151 185.047 135.148V168.919C185.047 169.917 184.518 170.454 183.459 170.454H177.395C176.39 170.454 175.883 169.917 175.883 168.919V166.54H175.592C175.062 167.844 174.126 168.842 172.775 169.456C171.432 170.147 170.012 170.454 168.515 170.454Z" fill="#1D1E22"/>
<path d="M193.789 141.595H190.896C190.32 141.595 189.921 141.441 189.706 141.288C189.491 141.057 189.384 140.674 189.384 140.137V135.148C189.384 134.15 189.89 133.613 190.896 133.613H193.789C194.319 133.613 194.58 133.382 194.58 132.845V125.937C194.58 124.94 195.11 124.479 196.169 124.479H202.232C203.245 124.479 203.752 124.94 203.752 125.937V132.845C203.752 133.382 204.043 133.613 204.619 133.613H210.253C211.258 133.613 211.765 134.15 211.765 135.148V140.137C211.765 140.674 211.657 141.058 211.442 141.212C211.227 141.442 210.828 141.595 210.253 141.595H204.619C204.043 141.595 203.752 141.825 203.752 142.362V158.327C203.752 159.786 204.089 160.86 204.765 161.55C205.433 162.164 206.546 162.471 208.081 162.471H210.974C211.979 162.471 212.486 163.009 212.486 164.007V168.996C212.486 169.533 212.379 169.916 212.164 170.147C211.949 170.377 211.55 170.454 210.974 170.454H206.568C202.762 170.454 199.814 169.456 197.719 167.46C195.631 165.388 194.58 162.471 194.58 158.787V142.362C194.58 141.825 194.319 141.595 193.789 141.595Z" fill="#1D1E22"/>
<path d="M236.095 170.454H229.671C225.872 170.454 222.932 169.456 220.86 167.461C218.795 165.388 217.759 162.472 217.759 158.711V145.433C217.759 141.595 218.795 138.679 220.86 136.683C222.932 134.611 225.872 133.613 229.671 133.613H236.095C239.848 133.613 242.773 134.688 244.868 136.683C246.963 138.755 248.015 141.672 248.015 145.433V158.711C248.015 162.395 246.963 165.312 244.868 167.384C242.773 169.456 239.848 170.454 236.095 170.454ZM231.045 162.548H234.729C236.264 162.548 237.362 162.241 238.014 161.627C238.659 161.013 238.989 159.939 238.989 158.404V145.663C238.989 144.128 238.659 143.053 238.014 142.439C237.362 141.825 236.264 141.518 234.729 141.518H231.045C229.502 141.518 228.42 141.825 227.791 142.439C227.169 143.053 226.854 144.128 226.854 145.663V158.404C226.854 159.939 227.169 161.013 227.791 161.627C228.42 162.241 229.502 162.548 231.045 162.548Z" fill="#1D1E22"/>
<path d="M269.167 170.454H255.444C254.485 170.454 254.001 169.917 254.001 168.919V164.314C254.001 163.776 254.101 163.393 254.293 163.163C254.485 163.01 254.868 162.856 255.444 162.856H267.502C269.866 162.856 271.04 162.165 271.04 160.706V160.323C271.04 159.172 270.058 158.097 268.085 157.023L260.932 153.031C258.483 151.803 256.672 150.422 255.521 149.04C254.362 147.582 253.786 145.74 253.786 143.437C253.786 140.06 254.676 137.604 256.457 135.993C258.238 134.458 261.031 133.613 264.831 133.613H276.889C277.856 133.613 278.339 134.151 278.339 135.148V139.83C278.339 140.367 278.239 140.751 278.047 140.982C277.856 141.135 277.472 141.288 276.889 141.288H266.857C264.493 141.288 263.319 141.903 263.319 143.054V143.437C263.319 144.512 264.355 145.587 266.419 146.661L273.711 151.036C276.221 152.34 277.978 153.799 278.984 155.181C279.997 156.562 280.504 158.481 280.504 160.783C280.504 167.23 276.72 170.454 269.167 170.454Z" fill="#1D1E22"/>
<path d="M301.587 170.454H293.352C292.439 170.454 291.863 169.917 291.617 168.919L284.403 135.148C284.211 134.151 284.572 133.613 285.485 133.613H292.416C293.475 133.613 294.05 134.151 294.15 135.148L297.397 159.862H297.973L303.1 135.148C303.245 134.151 303.798 133.613 304.765 133.613H311.112C312.125 133.613 312.732 134.151 312.924 135.148L317.905 159.862H318.481L321.804 135.148C321.95 134.151 322.525 133.613 323.531 133.613H330.469C331.429 133.613 331.789 134.151 331.552 135.148L324.329 168.919C324.137 169.917 323.561 170.454 322.594 170.454H314.367C313.4 170.454 312.824 169.917 312.632 168.919L308.227 144.512H307.651L303.314 168.919C303.176 169.917 302.593 170.454 301.587 170.454Z" fill="#1D1E22"/>
<path d="M337.469 127.396V121.103C337.469 120.182 337.952 119.721 338.912 119.721H345.198C346.157 119.721 346.641 120.182 346.641 121.103V127.396C346.641 128.394 346.157 128.854 345.198 128.854H338.912C337.952 128.854 337.469 128.394 337.469 127.396ZM337.469 168.919V135.148C337.469 134.151 337.952 133.613 338.912 133.613H345.121C346.134 133.613 346.641 134.151 346.641 135.148V168.919C346.641 169.533 346.533 169.993 346.311 170.147C346.096 170.377 345.727 170.454 345.198 170.454H338.989C337.976 170.454 337.469 169.917 337.469 168.919Z" fill="#1D1E22"/>
<path d="M368.3 133.613H374.08C374.655 133.613 375.054 133.767 375.269 133.92C375.484 134.15 375.591 134.534 375.591 135.072V140.061C375.591 141.058 375.085 141.595 374.08 141.595H368.3C367.771 141.595 367.502 141.825 367.502 142.363V168.919C367.502 169.917 366.98 170.454 365.921 170.454H359.85C358.844 170.454 358.338 169.917 358.338 168.919V142.363C358.338 141.825 358.046 141.595 357.47 141.595H354.147C353.134 141.595 352.635 141.058 352.635 140.061V135.072C352.635 134.534 352.742 134.15 352.957 133.92C353.172 133.69 353.572 133.613 354.147 133.613H357.47C358.046 133.613 358.338 133.383 358.338 132.845V131.464C358.338 127.627 359.335 124.787 361.331 122.715C363.327 120.719 366.228 119.721 370.035 119.721H374.149C374.724 119.721 375.108 119.798 375.3 120.028C375.499 120.259 375.591 120.643 375.591 121.103V126.091C375.591 127.166 375.108 127.627 374.149 127.627H371.478C369.935 127.627 368.891 127.934 368.339 128.625C367.786 129.239 367.502 130.389 367.502 131.924V132.845C367.502 133.383 367.771 133.613 368.3 133.613Z" fill="#1D1E22"/>
<path d="M381.294 141.595H378.408C377.833 141.595 377.434 141.441 377.219 141.288C377.004 141.057 376.889 140.674 376.889 140.137V135.148C376.889 134.15 377.395 133.613 378.408 133.613H381.294C381.824 133.613 382.093 133.382 382.093 132.845V125.937C382.093 124.94 382.622 124.479 383.681 124.479H389.745C390.758 124.479 391.257 124.94 391.257 125.937V132.845C391.257 133.382 391.548 133.613 392.124 133.613H397.757C398.771 133.613 399.277 134.15 399.277 135.148V140.137C399.277 140.674 399.17 141.058 398.947 141.212C398.732 141.442 398.333 141.595 397.757 141.595H392.124C391.548 141.595 391.257 141.825 391.257 142.362V158.327C391.257 159.786 391.594 160.86 392.27 161.55C392.945 162.164 394.05 162.471 395.593 162.471H398.479C399.492 162.471 399.999 163.009 399.999 164.007V168.996C399.999 169.533 399.891 169.916 399.669 170.147C399.454 170.377 399.055 170.454 398.479 170.454H394.074C390.274 170.454 387.327 169.456 385.232 167.46C383.136 165.388 382.093 162.471 382.093 158.787V142.362C382.093 141.825 381.824 141.595 381.294 141.595Z" fill="#1D1E22"/>
</svg>
