<svg width="400" height="300" viewBox="0 0 400 300" fill="none" xmlns="http://www.w3.org/2000/svg">
<path d="M201.381 125.349L185.539 155.003V172.859H175.583V155.003L159.135 125.349H170.853L180.698 146.043L190.161 125.349H201.381Z" fill="#1D1E22"/>
<path d="M204.022 141.526C206.497 138.435 210.623 136.889 216.564 136.889C220.414 136.889 223.825 137.648 226.796 139.177C229.766 140.701 231.307 143.578 231.307 147.814V163.931C231.307 165.048 231.307 166.401 231.362 167.991C231.417 169.195 231.581 170.01 231.911 170.439C232.186 170.868 232.626 171.225 233.231 171.506V172.859H223.274C222.999 172.149 222.78 171.484 222.67 170.857C222.56 170.235 222.505 169.525 222.395 168.733C221.13 170.109 219.699 171.28 218.049 172.243C216.069 173.382 213.813 173.954 211.338 173.954C208.148 173.954 205.508 173.046 203.472 171.231C201.382 169.415 200.336 166.841 200.336 163.513C200.336 159.189 201.986 156.065 205.342 154.129C207.157 153.078 209.853 152.324 213.374 151.873L216.508 151.488C218.214 151.274 219.425 151.004 220.14 150.68C221.46 150.124 222.119 149.255 222.119 148.072C222.119 146.631 221.624 145.635 220.634 145.091C219.644 144.541 218.16 144.266 216.235 144.266C214.089 144.266 212.493 144.805 211.613 145.877C210.953 146.675 210.568 147.748 210.348 149.101H201.491C201.656 146.032 202.536 143.507 204.022 141.526ZM210.898 166.219C211.723 166.929 212.768 167.281 214.033 167.281C216.014 167.281 217.829 166.704 219.479 165.543C221.184 164.382 222.009 162.264 222.119 159.189V155.773C221.514 156.142 220.91 156.434 220.36 156.659C219.755 156.885 218.929 157.099 217.884 157.292L215.849 157.677C213.924 158.018 212.494 158.441 211.668 158.931C210.293 159.773 209.577 161.071 209.577 162.831C209.577 164.404 210.017 165.532 210.898 166.219Z" fill="#1D1E22"/>
<path d="M263.651 139.337C266.401 141.097 267.942 144.128 268.382 148.424H259.195C259.085 147.242 258.755 146.312 258.205 145.624C257.16 144.376 255.455 143.754 253.035 143.754C251.054 143.754 249.624 144.062 248.744 144.689C247.919 145.311 247.479 146.043 247.479 146.879C247.479 147.929 247.974 148.694 248.854 149.167C249.734 149.662 252.924 150.509 258.425 151.714C262.056 152.572 264.806 153.876 266.621 155.614C268.437 157.374 269.317 159.58 269.317 162.22C269.317 165.702 268.052 168.546 265.466 170.747C262.881 172.947 258.864 174.053 253.474 174.053C247.918 174.053 243.847 172.886 241.207 170.554C238.622 168.222 237.247 165.251 237.247 161.643H246.598C246.763 163.277 247.204 164.432 247.864 165.119C248.964 166.346 251.109 166.957 254.189 166.957C255.95 166.957 257.38 166.693 258.48 166.153C259.525 165.614 260.076 164.811 260.076 163.739C260.076 162.704 259.636 161.918 258.756 161.384C257.93 160.845 254.74 159.921 249.184 158.612C245.224 157.622 242.418 156.39 240.768 154.904C239.173 153.441 238.346 151.34 238.346 148.589C238.346 145.344 239.613 142.555 242.143 140.223C244.728 137.89 248.304 136.724 252.924 136.724C257.27 136.724 260.845 137.599 263.651 139.337Z" fill="#1D1E22"/>
<path d="M292.694 144.524C289.559 144.524 287.414 145.85 286.259 148.49C285.654 149.888 285.378 151.67 285.378 153.843V172.859H276.192V137.791H285.049V142.913C286.259 141.108 287.358 139.81 288.404 139.012C290.329 137.599 292.694 136.889 295.61 136.889C299.24 136.889 302.21 137.841 304.521 139.739C306.831 141.642 307.987 144.794 307.987 149.2V172.859H298.581V151.488C298.581 149.64 298.305 148.221 297.865 147.236C296.93 145.426 295.225 144.524 292.694 144.524Z" fill="#1D1E22"/>
<path d="M346.548 162.545C346.328 164.63 345.227 166.742 343.302 168.893C340.277 172.309 336.041 174.02 330.65 174.02C326.194 174.02 322.234 172.579 318.824 169.702C315.413 166.819 313.708 162.138 313.708 155.647C313.708 149.563 315.248 144.904 318.328 141.659C321.409 138.413 325.425 136.791 330.321 136.791C333.236 136.791 335.877 137.341 338.242 138.435C340.552 139.53 342.478 141.263 344.018 143.622C345.393 145.707 346.273 148.128 346.713 150.878C346.933 152.49 347.042 154.806 346.987 157.837H322.949C323.059 161.363 324.16 163.832 326.25 165.252C327.516 166.132 329.055 166.572 330.87 166.572C332.741 166.572 334.281 166.038 335.436 164.96C336.097 164.383 336.647 163.574 337.142 162.545H346.548ZM337.471 151.78C337.306 149.349 336.591 147.506 335.216 146.252C333.951 144.992 332.301 144.365 330.321 144.365C328.231 144.365 326.525 145.031 325.37 146.362C324.214 147.699 323.5 149.503 323.17 151.78H337.471Z" fill="#1D1E22"/>
<path fill-rule="evenodd" clip-rule="evenodd" d="M52.0007 101C69.9209 101 84.4695 115.549 84.4695 133.469C84.4695 151.389 69.9209 165.938 52.0007 165.938V101Z" fill="#1D1E22"/>
<path fill-rule="evenodd" clip-rule="evenodd" d="M52.0005 165.938V198.407H84.4693C84.4693 180.487 69.9207 165.938 52.0005 165.938Z" fill="#1D1E22"/>
<path fill-rule="evenodd" clip-rule="evenodd" d="M52 165.937V198.406H84.4688C84.4688 180.486 69.92 165.937 52 165.937Z" fill="#1D1E22"/>
<path fill-rule="evenodd" clip-rule="evenodd" d="M123.431 101C105.511 101 90.9626 115.549 90.9626 133.469C90.9626 151.389 105.511 165.938 123.431 165.938V101Z" fill="#1D1E22"/>
<path fill-rule="evenodd" clip-rule="evenodd" d="M123.431 165.938V198.407H90.9626C90.9626 180.487 105.511 165.938 123.431 165.938Z" fill="#1D1E22"/>
<path fill-rule="evenodd" clip-rule="evenodd" d="M123.431 165.937V198.406H90.9622C90.9622 180.486 105.511 165.937 123.431 165.937Z" fill="#1D1E22"/>
</svg>
