<svg width="400" height="300" viewBox="0 0 400 300" fill="none" xmlns="http://www.w3.org/2000/svg">
<path fill-rule="evenodd" clip-rule="evenodd" d="M44.042 111.009C44.042 104.933 48.9752 100 55.0512 100C61.1272 100 66.0604 104.933 66.0604 111.009H66.1319C72.1749 111.048 77.0695 115.965 77.0695 122.018C77.0695 128.094 72.1363 133.028 66.0604 133.028V133.097H110.097C110.097 155.567 93.2673 174.093 71.565 176.685V196.321C71.565 197.846 70.333 199.083 68.8127 199.083H57.8035C56.2842 199.083 55.0512 197.845 55.0512 196.321C55.0512 194.798 56.2842 193.56 57.8035 193.56H66.0604V176.995H46.7943V196.321C46.7943 197.846 45.5624 199.083 44.042 199.083H33.0329C31.5136 199.083 30.2806 197.845 30.2806 196.321C30.2806 194.798 31.5136 193.56 33.0329 193.56H41.2897V176.854C36.4347 176.297 31.8802 174.109 28.3903 170.608C24.3136 166.52 22.0237 160.973 22.0237 155.19V133.097L0.00537109 111.009H44.042ZM44.042 121.777C50.118 121.777 55.0512 126.725 55.0512 132.821C55.0512 138.915 50.118 143.864 44.042 143.864C37.9661 143.864 33.0329 138.915 33.0329 132.821C33.0329 126.725 37.9661 121.777 44.042 121.777Z" fill="#1D1E22"/>
<path fill-rule="evenodd" clip-rule="evenodd" d="M153.646 165.834C162.763 165.834 167.429 161.695 168.268 154.825H162.453C161.705 157.423 159.987 160.286 153.514 160.286C147.789 160.286 143.385 156.366 143.385 149.761C143.385 143.111 147.833 139.236 153.514 139.236C159.679 139.236 161.352 142.098 162.057 144.697H167.869C167.254 138.796 162.851 133.688 153.47 133.688C144.354 133.688 137.617 140.557 137.617 149.717C137.617 158.92 144.442 165.834 153.646 165.834Z" fill="#1D1E22"/>
<path fill-rule="evenodd" clip-rule="evenodd" d="M179.846 144.521C178.525 145.621 177.956 147.911 177.337 149.541L176.415 149.188C177.029 147.559 177.91 145.489 177.91 143.772V133.203H172.539V165.174H177.91V153.944C177.91 149.717 180.906 147.823 184.428 147.823C187.644 147.823 189.185 149.717 189.185 153.944V165.174H194.598V150.069C194.598 145.049 191.121 142.495 186.63 142.495C183.768 142.495 181.699 142.935 179.846 144.521Z" fill="#1D1E22"/>
<path fill-rule="evenodd" clip-rule="evenodd" d="M199.268 139.853H205.126V134.348H199.268V139.853ZM199.575 165.174H204.906V143.155H199.575V165.174Z" fill="#1D1E22"/>
<path fill-rule="evenodd" clip-rule="evenodd" d="M208.91 154.032C208.91 161.21 213.754 165.834 221.02 165.878C228.066 165.834 231.809 161.518 232.516 157.203H226.745C226.617 157.687 225.029 160.77 220.846 160.77C216.795 160.726 214.24 157.907 214.24 153.988C214.286 150.025 216.708 147.559 220.672 147.559C224.942 147.559 226.484 150.641 226.617 151.082H232.383C231.942 146.986 228.066 142.495 220.8 142.495C213.667 142.495 208.91 146.854 208.91 154.032Z" fill="#1D1E22"/>
<path fill-rule="evenodd" clip-rule="evenodd" d="M243.658 148.616C242.424 149.673 241.63 151.566 240.97 153.064L240.048 152.667C240.75 151.17 241.63 149.32 241.63 147.691V133.247H236.213V165.174H241.63L241.543 156.763L243.699 154.869L252.158 165.218H258.892L247.355 151.698L256.603 143.199H249.864L243.658 148.616Z" fill="#1D1E22"/>
<path fill-rule="evenodd" clip-rule="evenodd" d="M269.332 165.129H275.406L279.195 154.384H289.016L293.153 165.129H299.186L287.296 134.26H280.69L269.332 165.129ZM288.309 150.069H279.722L283.332 141.878C283.731 140.953 283.511 139.676 283.511 138.707H284.525C284.525 139.676 284.305 140.953 284.699 141.878L288.309 150.069Z" fill="#1D1E22"/>
<path fill-rule="evenodd" clip-rule="evenodd" d="M301.479 159.845C301.479 163.28 304.121 165.174 309.14 165.174H312.396V160.153H309.667C307.644 160.153 306.892 159.581 306.892 157.775V133.247H301.479V159.845Z" fill="#1D1E22"/>
<path fill-rule="evenodd" clip-rule="evenodd" d="M333.406 162.972C334.286 161.959 334.461 160.153 334.855 158.92L335.828 159.229C335.429 160.462 334.635 162.047 334.635 163.368L334.594 165.173H340.011V143.155H334.594L334.635 144.829C334.635 146.15 335.429 147.691 335.828 148.968L334.901 149.276C334.461 147.999 334.286 146.194 333.36 145.225C331.773 143.507 329.484 142.495 326.534 142.495C319.974 142.495 315.351 147.471 315.351 154.032C315.351 160.594 319.974 165.878 326.534 165.878C329.484 165.878 331.773 164.777 333.406 162.972ZM320.763 154.032C320.763 150.289 323.185 147.515 326.841 147.515C330.851 147.515 333.007 150.157 333.007 154.032C332.874 157.643 330.452 160.858 326.841 160.858C323.185 160.858 320.763 157.731 320.763 154.032Z" fill="#1D1E22"/>
<path fill-rule="evenodd" clip-rule="evenodd" d="M352.429 144.696C351.062 145.709 350.36 147.911 349.699 149.452L348.773 149.056C349.433 147.515 350.36 145.489 350.36 143.816V143.155H344.984V165.173H350.36V155.574C350.36 149.452 356.039 147.515 361.497 147.515V142.495C357.185 142.495 354.763 142.891 352.429 144.696Z" fill="#1D1E22"/>
<path fill-rule="evenodd" clip-rule="evenodd" d="M386.029 144.432C384.488 145.621 384.002 147.999 383.695 149.893L382.727 149.761C382.988 147.867 383.607 145.093 382.107 143.86C380.919 142.847 379.204 142.495 377.222 142.495C374.974 142.495 373.607 142.847 372.465 143.992C371.098 145.313 370.791 148.043 370.218 149.893L369.296 149.585C369.823 147.735 370.704 145.357 370.704 143.419V143.155H365.286V165.173H370.704V153.328C370.704 148.88 372.332 146.854 375.548 146.854C378.543 146.854 379.951 148.836 379.951 153.328V165.173H385.369V153.328C385.369 148.88 386.69 146.854 389.86 146.854C392.763 146.854 394.13 148.836 394.13 153.328V165.173H399.548V150.069C399.548 145.049 395.979 142.495 391.401 142.495C389.199 142.495 387.392 143.419 386.029 144.432Z" fill="#1D1E22"/>
</svg>
