<svg width="400" height="300" viewBox="0 0 400 300" fill="none" xmlns="http://www.w3.org/2000/svg">
<path d="M202.401 123.471L185.178 155.711V175.123H174.354V155.711L156.473 123.471H169.212L179.915 145.969L190.202 123.471H202.401Z" fill="#1D1E22"/>
<path d="M205.272 141.058C207.963 137.698 212.448 136.017 218.907 136.017C223.093 136.017 226.801 136.842 230.031 138.505C233.26 140.161 234.935 143.289 234.935 147.894V165.416C234.935 166.63 234.935 168.101 234.995 169.829C235.055 171.139 235.233 172.024 235.592 172.491C235.891 172.957 236.369 173.346 237.027 173.651V175.122H226.203C225.904 174.351 225.665 173.627 225.546 172.945C225.426 172.269 225.366 171.498 225.246 170.637C223.871 172.132 222.316 173.406 220.522 174.452C218.369 175.69 215.917 176.312 213.226 176.312C209.757 176.312 206.887 175.325 204.675 173.352C202.402 171.378 201.265 168.58 201.265 164.961C201.265 160.261 203.059 156.864 206.707 154.759C208.68 153.617 211.612 152.798 215.439 152.307L218.847 151.889C220.701 151.655 222.017 151.362 222.795 151.01C224.23 150.406 224.947 149.461 224.947 148.175C224.947 146.608 224.409 145.526 223.332 144.934C222.256 144.336 220.642 144.037 218.549 144.037C216.217 144.037 214.482 144.623 213.525 145.789C212.808 146.656 212.389 147.822 212.15 149.293H202.521C202.7 145.956 203.657 143.211 205.272 141.058ZM212.747 167.904C213.644 168.675 214.781 169.058 216.156 169.058C218.309 169.058 220.282 168.43 222.077 167.168C223.93 165.906 224.827 163.604 224.947 160.261V156.547C224.289 156.948 223.632 157.265 223.034 157.51C222.376 157.755 221.478 157.989 220.342 158.198L218.13 158.617C216.037 158.987 214.482 159.448 213.585 159.98C212.09 160.895 211.312 162.306 211.312 164.22C211.312 165.93 211.79 167.156 212.747 167.904Z" fill="#1D1E22"/>
<path d="M270.098 138.679C273.088 140.593 274.763 143.888 275.242 148.558H265.254C265.134 147.273 264.776 146.262 264.178 145.514C263.041 144.157 261.188 143.481 258.557 143.481C256.404 143.481 254.849 143.816 253.892 144.498C252.995 145.174 252.516 145.969 252.516 146.878C252.516 148.02 253.055 148.851 254.012 149.366C254.968 149.904 258.437 150.825 264.417 152.135C268.364 153.068 271.354 154.485 273.328 156.375C275.301 158.288 276.258 160.686 276.258 163.557C276.258 167.342 274.883 170.434 272.072 172.826C269.261 175.218 264.895 176.42 259.034 176.42C252.994 176.42 248.569 175.153 245.698 172.617C242.887 170.081 241.393 166.852 241.393 162.929H251.559C251.738 164.705 252.218 165.961 252.936 166.708C254.132 168.042 256.463 168.706 259.812 168.706C261.726 168.706 263.281 168.419 264.477 167.833C265.613 167.247 266.212 166.374 266.212 165.207C266.212 164.083 265.733 163.228 264.776 162.648C263.879 162.062 260.411 161.057 254.371 159.634C250.065 158.557 247.015 157.218 245.221 155.603C243.486 154.012 242.588 151.728 242.588 148.738C242.588 145.209 243.965 142.177 246.716 139.642C249.527 137.106 253.413 135.838 258.437 135.838C263.161 135.838 267.048 136.789 270.098 138.679Z" fill="#1D1E22"/>
<path d="M301.673 144.318C298.264 144.318 295.932 145.759 294.677 148.629C294.019 150.148 293.719 152.086 293.719 154.448V175.122H283.732V136.998H293.361V142.565C294.677 140.604 295.872 139.193 297.008 138.325C299.101 136.789 301.673 136.017 304.843 136.017C308.79 136.017 312.018 137.052 314.53 139.115C317.042 141.184 318.298 144.611 318.298 149.401V175.122H308.072V151.889C308.072 149.879 307.772 148.336 307.294 147.266C306.277 145.298 304.424 144.318 301.673 144.318Z" fill="#1D1E22"/>
<path d="M360.221 163.91C359.982 166.177 358.785 168.473 356.692 170.811C353.403 174.525 348.798 176.385 342.937 176.385C338.093 176.385 333.788 174.818 330.08 171.69C326.372 168.557 324.519 163.468 324.519 156.411C324.519 149.797 326.192 144.731 329.541 141.203C332.89 137.675 337.257 135.911 342.579 135.911C345.749 135.911 348.619 136.509 351.19 137.699C353.702 138.889 355.796 140.773 357.47 143.338C358.965 145.605 359.922 148.236 360.4 151.226C360.64 152.978 360.758 155.496 360.698 158.791H334.565C334.685 162.624 335.881 165.31 338.154 166.852C339.529 167.809 341.203 168.288 343.176 168.288C345.21 168.288 346.885 167.708 348.141 166.535C348.858 165.908 349.457 165.028 349.995 163.91H360.221ZM350.352 152.207C350.173 149.564 349.396 147.56 347.901 146.197C346.526 144.827 344.732 144.145 342.579 144.145C340.307 144.145 338.452 144.869 337.196 146.316C335.94 147.769 335.163 149.731 334.805 152.207H350.352Z" fill="#1D1E22"/>
<path fill-rule="evenodd" clip-rule="evenodd" d="M40.001 97C59.483 97 75.2997 112.817 75.2997 132.299C75.2997 151.781 59.483 167.597 40.001 167.597V97Z" fill="#1D1E22"/>
<path fill-rule="evenodd" clip-rule="evenodd" d="M40.0005 167.598V202.897H75.2992C75.2992 183.415 59.4826 167.598 40.0005 167.598Z" fill="#1D1E22"/>
<path fill-rule="evenodd" clip-rule="evenodd" d="M39.9998 167.598V202.896H75.2986C75.2986 183.415 59.4817 167.598 39.9998 167.598Z" fill="#1D1E22"/>
<path fill-rule="evenodd" clip-rule="evenodd" d="M117.657 97C98.1752 97 82.3585 112.817 82.3585 132.299C82.3585 151.781 98.1752 167.597 117.657 167.597V97Z" fill="#1D1E22"/>
<path fill-rule="evenodd" clip-rule="evenodd" d="M117.657 167.598V202.897H82.3585C82.3585 183.415 98.1752 167.598 117.657 167.598Z" fill="#1D1E22"/>
<path fill-rule="evenodd" clip-rule="evenodd" d="M117.657 167.598V202.896H82.3582C82.3582 183.415 98.175 167.598 117.657 167.598Z" fill="#1D1E22"/>
</svg>
