<svg width="400" height="300" viewBox="0 0 400 300" fill="none" xmlns="http://www.w3.org/2000/svg">
<g clip-path="url(#clip0_102_2203)">
<path d="M13.0008 188.914C14.6541 188.914 16.2397 188.258 17.4084 187.089C21.0665 183.431 29.3846 175.113 34.5496 169.948C35.7183 168.779 37.3038 168.122 38.9572 168.122C40.6105 168.122 42.1961 168.779 43.3648 169.948C48.5298 175.113 56.8479 183.431 60.506 187.089C61.6747 188.258 63.2602 188.914 64.9136 188.914C69.7778 188.914 80.4263 188.914 87.2641 188.914C90.7064 188.914 93.4973 186.123 93.4973 182.681C93.4973 168.086 93.4973 131.828 93.4973 117.233C93.4973 113.791 90.7064 111 87.2641 111C80.4263 111 69.7778 111 64.9136 111C63.2602 111 61.6747 111.657 60.506 112.826C56.8479 116.484 48.5298 124.802 43.3648 129.967C42.1961 131.135 40.6105 131.792 38.9572 131.792C37.3038 131.792 35.7183 131.135 34.5496 129.967C29.3846 124.802 21.0665 116.484 17.4084 112.826C16.2397 111.657 14.6541 111 13.0008 111C11.1573 111 8.59551 111 6.23315 111C2.79089 111 0 113.791 0 117.233C0 131.828 0 168.086 0 182.681C0 186.123 2.79089 188.914 6.23315 188.914C8.59551 188.914 11.1573 188.914 13.0008 188.914ZM257.205 177.258C268.2 177.258 276.652 168.582 276.652 157.961C276.652 147.489 268.275 138.812 257.205 138.812C246.209 138.812 237.608 147.414 237.608 157.961C237.608 168.582 246.135 177.258 257.205 177.258ZM209.783 177.258C220.853 177.258 229.305 168.956 229.305 158.11V122.88H221.9L221.825 144.273C218.833 140.981 214.346 138.812 209.409 138.812C198.339 138.812 190.261 146.965 190.261 158.11C190.261 168.657 198.638 177.258 209.783 177.258ZM132.068 176.361V158.185C132.068 151.079 136.631 145.843 143.138 145.843C150.094 145.843 153.685 151.453 153.685 157.961V176.361H161.09V157.213C161.09 145.993 155.031 138.812 144.26 138.812C139.323 138.812 134.91 140.757 132.068 143.824V122.88H124.663V176.361H132.068ZM173.132 139.71V176.361H180.537V139.71H173.132ZM209.783 170.302C202.976 170.302 197.666 164.767 197.666 158.035C197.666 151.378 202.976 145.843 209.783 145.843C216.664 145.843 221.9 151.378 221.9 158.035C221.9 164.767 216.664 170.302 209.783 170.302ZM257.205 170.227C250.323 170.227 245.013 164.692 245.013 158.035C245.013 151.304 250.323 145.769 257.205 145.769C264.011 145.769 269.247 151.304 269.247 158.035C269.247 164.692 264.011 170.227 257.205 170.227ZM176.797 132.455C179.49 132.455 181.584 130.285 181.584 127.593C181.584 124.9 179.49 122.656 176.797 122.656C174.104 122.656 171.935 124.9 171.935 127.593C171.935 130.285 174.104 132.455 176.797 132.455Z" fill="#1D1E22"/>
</g>
<defs>
<clipPath id="clip0_102_2203">
<rect width="400" height="300" fill="white"/>
</clipPath>
</defs>
</svg>
