<svg width="400" height="300" viewBox="0 0 400 300" fill="none" xmlns="http://www.w3.org/2000/svg">
<path d="M64.957 191.645C66.732 191.645 68.4341 190.94 69.6888 189.685C73.6159 185.758 82.5459 176.828 88.0907 171.283C89.3454 170.029 91.0476 169.324 92.8225 169.324C94.5974 169.324 96.2996 170.029 97.5543 171.283C103.099 176.828 112.029 185.758 115.956 189.685C117.211 190.94 118.913 191.645 120.688 191.645C125.91 191.645 137.342 191.645 144.682 191.645C148.378 191.645 151.374 188.649 151.374 184.953C151.374 169.285 151.374 130.36 151.374 114.692C151.374 110.996 148.378 108 144.682 108C137.342 108 125.91 108 120.688 108C118.913 108 117.211 108.705 115.956 109.96C112.029 113.887 103.099 122.817 97.5543 128.362C96.2996 129.616 94.5974 130.321 92.8225 130.321C91.0476 130.321 89.3454 129.616 88.0907 128.362C82.5459 122.817 73.6159 113.887 69.6888 109.96C68.4341 108.705 66.732 108 64.957 108C62.978 108 60.2277 108 57.6916 108C53.9962 108 51 110.996 51 114.692C51 130.36 51 169.285 51 184.953C51 188.649 53.9962 191.645 57.6916 191.645C60.2277 191.645 62.978 191.645 64.957 191.645ZM327.122 179.132C338.926 179.132 348 169.817 348 158.414C348 147.173 339.006 137.858 327.122 137.858C315.318 137.858 306.084 147.092 306.084 158.414C306.084 169.817 315.238 179.132 327.122 179.132ZM276.212 179.132C288.097 179.132 297.171 170.218 297.171 158.575V120.754H289.221L289.141 143.72C285.929 140.187 281.111 137.858 275.811 137.858C263.927 137.858 255.254 146.611 255.254 158.575C255.254 169.897 264.248 179.132 276.212 179.132ZM192.782 178.168V158.655C192.782 151.027 197.68 145.406 204.666 145.406C212.134 145.406 215.988 151.428 215.988 158.414V178.168H223.938V157.612C223.938 145.567 217.433 137.858 205.87 137.858C200.571 137.858 195.833 139.946 192.782 143.238V120.754H184.832V178.168H192.782ZM236.866 138.822V178.168H244.815V138.822H236.866ZM276.212 171.664C268.905 171.664 263.204 165.722 263.204 158.495C263.204 151.348 268.905 145.406 276.212 145.406C283.6 145.406 289.221 151.348 289.221 158.495C289.221 165.722 283.6 171.664 276.212 171.664ZM327.122 171.584C319.735 171.584 314.033 165.641 314.033 158.495C314.033 151.268 319.735 145.326 327.122 145.326C334.429 145.326 340.05 151.268 340.05 158.495C340.05 165.641 334.429 171.584 327.122 171.584ZM240.801 131.032C243.691 131.032 245.94 128.704 245.94 125.813C245.94 122.922 243.691 120.513 240.801 120.513C237.91 120.513 235.581 122.922 235.581 125.813C235.581 128.704 237.91 131.032 240.801 131.032Z" fill="#1D1E22"/>
</svg>
