<svg width="400" height="300" viewBox="0 0 400 300" fill="none" xmlns="http://www.w3.org/2000/svg">
<path d="M162.401 123.471L145.178 155.71V175.122H134.354V155.71L116.473 123.471H129.212L139.915 145.968L150.202 123.471H162.401Z" fill="#1D1E22"/>
<path d="M165.272 141.058C167.963 137.697 172.448 136.017 178.907 136.017C183.093 136.017 186.801 136.842 190.031 138.504C193.26 140.161 194.935 143.289 194.935 147.893V165.416C194.935 166.63 194.935 168.101 194.995 169.829C195.055 171.139 195.233 172.024 195.592 172.49C195.891 172.957 196.369 173.345 197.027 173.65V175.121H186.203C185.904 174.35 185.665 173.626 185.546 172.945C185.426 172.269 185.366 171.497 185.246 170.636C183.871 172.131 182.316 173.405 180.522 174.452C178.369 175.69 175.917 176.312 173.226 176.312C169.757 176.312 166.887 175.325 164.675 173.351C162.402 171.378 161.265 168.579 161.265 164.961C161.265 160.261 163.059 156.864 166.707 154.759C168.68 153.617 171.612 152.797 175.439 152.307L178.847 151.888C180.701 151.655 182.017 151.362 182.795 151.009C184.23 150.405 184.947 149.46 184.947 148.174C184.947 146.608 184.409 145.525 183.332 144.933C182.256 144.335 180.642 144.036 178.549 144.036C176.217 144.036 174.482 144.622 173.525 145.788C172.808 146.655 172.389 147.822 172.15 149.293H162.521C162.7 145.956 163.657 143.211 165.272 141.058ZM172.747 167.903C173.644 168.675 174.781 169.058 176.156 169.058C178.309 169.058 180.282 168.43 182.077 167.168C183.93 165.906 184.827 163.604 184.947 160.261V156.547C184.289 156.947 183.632 157.265 183.034 157.51C182.376 157.755 181.478 157.988 180.342 158.197L178.13 158.616C176.037 158.987 174.482 159.447 173.585 159.98C172.09 160.894 171.312 162.306 171.312 164.22C171.312 165.93 171.79 167.156 172.747 167.903Z" fill="#1D1E22"/>
<path d="M230.098 138.679C233.088 140.592 234.763 143.887 235.242 148.558H225.254C225.134 147.272 224.776 146.261 224.178 145.514C223.041 144.156 221.188 143.481 218.557 143.481C216.404 143.481 214.849 143.816 213.892 144.497C212.995 145.173 212.516 145.968 212.516 146.877C212.516 148.02 213.055 148.851 214.012 149.365C214.968 149.903 218.437 150.824 224.417 152.134C228.364 153.067 231.354 154.484 233.328 156.374C235.301 158.288 236.258 160.686 236.258 163.556C236.258 167.342 234.883 170.434 232.072 172.826C229.261 175.218 224.895 176.42 219.034 176.42C212.994 176.42 208.569 175.152 205.698 172.617C202.887 170.081 201.393 166.851 201.393 162.928H211.559C211.738 164.705 212.218 165.96 212.936 166.708C214.132 168.042 216.463 168.705 219.812 168.705C221.726 168.705 223.281 168.418 224.477 167.832C225.613 167.246 226.212 166.373 226.212 165.207C226.212 164.083 225.733 163.227 224.776 162.647C223.879 162.061 220.411 161.057 214.371 159.633C210.065 158.557 207.015 157.217 205.221 155.603C203.486 154.012 202.588 151.727 202.588 148.737C202.588 145.209 203.965 142.177 206.716 139.641C209.527 137.106 213.413 135.838 218.437 135.838C223.161 135.838 227.048 136.789 230.098 138.679Z" fill="#1D1E22"/>
<path d="M261.673 144.317C258.264 144.317 255.932 145.758 254.677 148.629C254.019 150.148 253.719 152.086 253.719 154.448V175.121H243.732V136.997H253.361V142.565C254.677 140.603 255.872 139.192 257.008 138.325C259.101 136.788 261.673 136.017 264.843 136.017C268.79 136.017 272.018 137.051 274.53 139.114C277.042 141.184 278.298 144.61 278.298 149.4V175.121H268.072V151.888C268.072 149.879 267.772 148.336 267.294 147.265C266.277 145.298 264.424 144.317 261.673 144.317Z" fill="#1D1E22"/>
<path d="M320.221 163.91C319.982 166.176 318.785 168.473 316.692 170.811C313.403 174.525 308.798 176.384 302.937 176.384C298.093 176.384 293.788 174.818 290.08 171.69C286.372 168.556 284.519 163.467 284.519 156.41C284.519 149.796 286.192 144.731 289.541 141.203C292.89 137.674 297.257 135.91 302.579 135.91C305.749 135.91 308.619 136.508 311.19 137.698C313.702 138.888 315.796 140.772 317.47 143.338C318.965 145.604 319.922 148.235 320.4 151.226C320.64 152.978 320.758 155.495 320.698 158.791H294.565C294.685 162.624 295.881 165.309 298.154 166.852C299.529 167.809 301.203 168.287 303.176 168.287C305.21 168.287 306.885 167.707 308.141 166.535C308.858 165.907 309.457 165.028 309.995 163.91H320.221ZM310.352 152.206C310.173 149.563 309.396 147.56 307.901 146.196C306.526 144.827 304.732 144.145 302.579 144.145C300.307 144.145 298.452 144.869 297.196 146.316C295.94 147.769 295.163 149.73 294.805 152.206H310.352Z" fill="#1D1E22"/>
<path fill-rule="evenodd" clip-rule="evenodd" d="M0.000976562 97C19.483 97 35.2997 112.817 35.2997 132.299C35.2997 151.781 19.483 167.597 0.000976562 167.597V97Z" fill="#1D1E22"/>
<path fill-rule="evenodd" clip-rule="evenodd" d="M0.000488281 167.599V202.897H35.2992C35.2992 183.415 19.4826 167.599 0.000488281 167.599Z" fill="#1D1E22"/>
<path fill-rule="evenodd" clip-rule="evenodd" d="M-0.000150323 167.598V202.896H35.2986C35.2986 183.415 19.4817 167.598 -0.000150323 167.598Z" fill="#1D1E22"/>
<path fill-rule="evenodd" clip-rule="evenodd" d="M77.6572 97C58.1752 97 42.3585 112.817 42.3585 132.299C42.3585 151.781 58.1752 167.597 77.6572 167.597V97Z" fill="#1D1E22"/>
<path fill-rule="evenodd" clip-rule="evenodd" d="M77.6572 167.599V202.897H42.3585C42.3585 183.415 58.1752 167.599 77.6572 167.599Z" fill="#1D1E22"/>
<path fill-rule="evenodd" clip-rule="evenodd" d="M77.6569 167.598V202.896H42.3582C42.3582 183.415 58.175 167.598 77.6569 167.598Z" fill="#1D1E22"/>
</svg>
