<svg width="400" height="300" viewBox="0 0 400 300" fill="none" xmlns="http://www.w3.org/2000/svg">
<mask id="mask0_90_2062" style="mask-type:luminance" maskUnits="userSpaceOnUse" x="0" y="116" width="400" height="68">
<path d="M399.586 116H0.384033V183.705H399.586V116Z" fill="white"/>
</mask>
<g mask="url(#mask0_90_2062)">
<path d="M89.3757 183.653V116.001H134.026V124.751H99.6589V138.732H130.418V147.121H99.6589V183.653H89.3757Z" fill="#1D1E22"/>
<path d="M151.616 183.653H141.423V137.92H151.616V183.653ZM140.792 116.001H152.428V129.08H140.792V116.001Z" fill="#1D1E22"/>
<path d="M161.448 145.678V138.552L168.303 137.65V120.15H178.587V137.379H192.839V145.678H178.587V165.703C178.587 166.605 178.602 167.522 178.632 168.454C178.662 169.386 178.767 170.228 178.947 170.98C179.128 171.732 179.413 172.363 179.804 172.874C180.195 173.385 180.751 173.641 181.473 173.641C182.195 173.641 182.736 173.145 183.097 172.153C183.458 171.16 183.683 170.003 183.773 168.68C183.863 167.357 183.894 166.049 183.863 164.756C183.833 163.463 183.788 162.516 183.728 161.915L192.658 170.664V171.115C192.538 172.799 192.192 174.408 191.621 175.941C191.05 177.475 190.238 178.813 189.185 179.955C188.133 181.098 186.84 182 185.307 182.661C183.773 183.323 181.984 183.654 179.94 183.654C177.113 183.654 174.918 183.037 173.355 181.804C171.791 180.572 170.634 179.053 169.882 177.249C169.13 175.445 168.679 173.506 168.529 171.431C168.379 169.356 168.303 167.447 168.303 165.703V145.678H161.448Z" fill="#1D1E22"/>
<path d="M199.153 116.001H209.436L219.809 164.981H220.711L231.897 124.57H245.878L257.153 164.981H258.055L268.429 116.001H278.712L264.009 183.653H253.635L239.293 133.861H238.391L224.5 183.653H213.856L199.153 116.001Z" fill="#1D1E22"/>
<path d="M296.302 183.653H286.109V137.92H296.302V183.653ZM285.477 116.001H297.113V129.08H285.477V116.001Z" fill="#1D1E22"/>
<path d="M327.873 137.199C332.443 137.199 336.517 138.071 340.095 139.815C343.673 141.559 346.485 143.874 348.529 146.76L348.98 147.392L341.313 155.059C340.291 152.172 338.577 149.993 336.172 148.519C333.766 147.046 330.97 146.309 327.783 146.309C325.197 146.309 323.092 146.79 321.468 147.753C319.845 148.715 319.033 150.038 319.033 151.721C319.033 153.105 319.589 154.097 320.702 154.698C321.814 155.3 323.242 155.6 324.986 155.6L334.187 155.69C339.359 155.751 343.267 156.998 345.913 159.434C348.559 161.869 349.882 164.951 349.882 168.68C349.882 170.905 349.416 172.934 348.484 174.768C347.552 176.603 346.229 178.181 344.515 179.504C342.801 180.827 340.772 181.849 338.427 182.571C336.081 183.293 333.496 183.653 330.669 183.653C328.625 183.653 326.505 183.443 324.31 183.022C322.115 182.601 320.025 182.015 318.041 181.263C316.056 180.511 314.267 179.579 312.674 178.467C311.08 177.354 309.802 176.076 308.84 174.633L308.389 174.092L316.507 166.064L317.409 167.597C317.95 168.499 318.672 169.326 319.574 170.078C320.476 170.83 321.498 171.476 322.641 172.017C323.784 172.558 325.016 172.979 326.339 173.28C327.662 173.581 328.985 173.731 330.308 173.731C332.593 173.731 334.593 173.22 336.307 172.198C338.021 171.175 338.878 169.702 338.878 167.778C338.878 166.695 338.592 165.838 338.021 165.207C337.449 164.575 336.758 164.109 335.946 163.809C335.134 163.508 334.292 163.298 333.42 163.177C332.548 163.057 331.782 162.997 331.12 162.997L329.406 162.907H324.175C321.889 162.907 319.785 162.681 317.86 162.23C315.936 161.779 314.267 161.103 312.854 160.201C311.441 159.299 310.343 158.141 309.562 156.728C308.78 155.315 308.389 153.616 308.389 151.631C308.389 149.346 308.9 147.317 309.922 145.543C310.945 143.769 312.328 142.265 314.072 141.032C315.816 139.8 317.875 138.852 320.251 138.191C322.626 137.529 325.167 137.199 327.873 137.199Z" fill="#1D1E22"/>
<path d="M377.936 137.289C380.581 137.289 382.972 137.68 385.107 138.462C387.241 139.243 389.121 140.266 390.744 141.529C392.368 142.791 393.721 144.25 394.804 145.903C395.886 147.557 396.698 149.256 397.239 151C397.48 151.661 397.675 152.383 397.825 153.165C397.976 153.947 398.051 154.698 398.051 155.42C398.051 155.901 398.036 156.397 398.006 156.908C397.976 157.419 397.901 157.916 397.78 158.397L397.69 158.848L366.029 164.891C366.51 167.778 367.833 170.138 369.998 171.972C372.163 173.806 375.26 174.723 379.289 174.723C382.175 174.723 384.641 174.062 386.685 172.739C388.73 171.416 390.263 169.762 391.286 167.778L391.827 166.695L399.584 174.363L399.223 174.723C396.998 177.43 394.187 179.609 390.789 181.263C387.392 182.917 383.528 183.744 379.198 183.744C374.808 183.744 371.125 183.067 368.148 181.714C365.172 180.361 362.766 178.587 360.932 176.392C359.098 174.197 357.775 171.732 356.963 168.996C356.152 166.259 355.746 163.508 355.746 160.742C355.746 158.096 356.091 155.39 356.783 152.624C357.475 149.857 358.662 147.332 360.346 145.047C362.03 142.761 364.3 140.897 367.156 139.454C370.013 138.011 373.606 137.289 377.936 137.289ZM387.677 152.624C387.016 150.699 385.888 149.181 384.295 148.068C382.701 146.956 380.551 146.4 377.845 146.4C375.741 146.4 373.952 146.715 372.478 147.347C371.005 147.978 369.802 148.805 368.87 149.827C367.938 150.85 367.247 152.037 366.795 153.39C366.344 154.743 366.029 156.142 365.848 157.585L387.677 152.624Z" fill="#1D1E22"/>
<path fill-rule="evenodd" clip-rule="evenodd" d="M34.2545 176.97C49.2099 176.97 61.3516 164.828 61.3516 149.873C61.3516 134.917 49.2099 122.776 34.2545 122.776V116.001C15.5606 116.001 0.383269 131.179 0.383269 149.873C0.383269 168.567 15.5606 183.744 34.2545 183.744V176.97Z" fill="#1D1E22"/>
</g>
</svg>
