<svg width="400" height="300" viewBox="0 0 400 300" fill="none" xmlns="http://www.w3.org/2000/svg">
<path fill-rule="evenodd" clip-rule="evenodd" d="M90.6441 103.411C90.6441 96.0095 96.6536 90 104.055 90C111.457 90 117.466 96.0095 117.466 103.411H117.553C124.915 103.458 130.877 109.449 130.877 116.822C130.877 124.224 124.868 130.233 117.466 130.233V130.318H171.11C171.11 157.689 150.609 180.258 124.172 183.416V207.336C124.172 209.193 122.671 210.699 120.819 210.699H107.408C105.557 210.699 104.055 209.192 104.055 207.336C104.055 205.48 105.557 203.972 107.408 203.972H117.466V183.793H93.9968V207.336C93.9968 209.193 92.4962 210.699 90.6441 210.699H77.2331C75.3823 210.699 73.8803 209.192 73.8803 207.336C73.8803 205.48 75.3823 203.972 77.2331 203.972H87.2913V183.621C81.3771 182.942 75.829 180.278 71.5777 176.013C66.6116 171.032 63.822 164.276 63.822 157.231V130.318L37 103.411H90.6441ZM90.6441 116.528C98.0456 116.528 104.055 122.555 104.055 129.981C104.055 137.405 98.0456 143.434 90.6441 143.434C83.2425 143.434 77.2331 137.405 77.2331 129.981C77.2331 122.555 83.2425 116.528 90.6441 116.528Z" fill="#1D1E22"/>
<path fill-rule="evenodd" clip-rule="evenodd" d="M224.627 140.714C235.734 140.714 241.417 135.671 242.439 127.303H235.356C234.444 130.468 232.352 133.955 224.466 133.955C217.493 133.955 212.128 129.18 212.128 121.134C212.128 113.034 217.546 108.313 224.466 108.313C231.977 108.313 234.015 111.8 234.873 114.965H241.953C241.204 107.776 235.84 101.554 224.413 101.554C213.308 101.554 205.101 109.922 205.101 121.08C205.101 132.292 213.416 140.714 224.627 140.714Z" fill="#1D1E22"/>
<path fill-rule="evenodd" clip-rule="evenodd" d="M256.076 114.75C254.467 116.091 253.774 118.88 253.02 120.865L251.897 120.436C252.645 118.451 253.718 115.93 253.718 113.838V100.963H247.175V139.909H253.718V126.23C253.718 121.08 257.367 118.773 261.659 118.773C265.576 118.773 267.453 121.08 267.453 126.23V139.909H274.047V121.509C274.047 115.394 269.812 112.282 264.341 112.282C260.854 112.282 258.334 112.819 256.076 114.75Z" fill="#1D1E22"/>
<path fill-rule="evenodd" clip-rule="evenodd" d="M279.736 109.064H286.871V102.358H279.736V109.064ZM280.11 139.909H286.603V113.087H280.11V139.909Z" fill="#1D1E22"/>
<path fill-rule="evenodd" clip-rule="evenodd" d="M291.481 126.337C291.481 135.081 297.382 140.714 306.233 140.767C314.816 140.714 319.376 135.456 320.237 130.199H313.207C313.051 130.789 311.117 134.545 306.021 134.545C301.087 134.491 297.974 131.058 297.974 126.283C298.03 121.455 300.981 118.451 305.809 118.451C311.011 118.451 312.889 122.206 313.051 122.743H320.075C319.538 117.754 314.816 112.282 305.965 112.282C297.276 112.282 291.481 117.593 291.481 126.337Z" fill="#1D1E22"/>
<path fill-rule="evenodd" clip-rule="evenodd" d="M333.81 119.739C332.307 121.026 331.34 123.333 330.536 125.157L329.412 124.674C330.267 122.85 331.34 120.597 331.34 118.612V101.017H324.741V139.909H331.34L331.234 129.663L333.861 127.356L344.165 139.963H352.368L338.314 123.494L349.579 113.141H341.371L333.81 119.739Z" fill="#1D1E22"/>
<path fill-rule="evenodd" clip-rule="evenodd" d="M205.101 200.462H212.499L217.115 187.373H229.079L234.119 200.462H241.467L226.983 162.858H218.937L205.101 200.462ZM228.218 182.116H217.758L222.155 172.138C222.641 171.012 222.373 169.456 222.373 168.276H223.608C223.608 169.456 223.34 171.012 223.82 172.138L228.218 182.116Z" fill="#1D1E22"/>
<path fill-rule="evenodd" clip-rule="evenodd" d="M244.261 194.025C244.261 198.21 247.48 200.516 253.593 200.516H257.56V194.401H254.235C251.771 194.401 250.855 193.704 250.855 191.504V161.625H244.261V194.025Z" fill="#1D1E22"/>
<path fill-rule="evenodd" clip-rule="evenodd" d="M283.153 197.834C284.226 196.6 284.438 194.401 284.919 192.899L286.103 193.274C285.617 194.776 284.65 196.708 284.65 198.317L284.6 200.516H291.199V173.694H284.6L284.65 175.733C284.65 177.342 285.617 179.22 286.103 180.775L284.974 181.151C284.438 179.595 284.226 177.396 283.097 176.216C281.163 174.123 278.375 172.89 274.782 172.89C266.791 172.89 261.159 178.951 261.159 186.944C261.159 194.937 266.791 201.375 274.782 201.375C278.375 201.375 281.163 200.034 283.153 197.834ZM267.752 186.944C267.752 182.385 270.703 179.005 275.156 179.005C280.04 179.005 282.667 182.224 282.667 186.944C282.505 191.343 279.554 195.259 275.156 195.259C270.703 195.259 267.752 191.45 267.752 186.944Z" fill="#1D1E22"/>
<path fill-rule="evenodd" clip-rule="evenodd" d="M306.326 175.572C304.661 176.806 303.806 179.488 303.001 181.365L301.872 180.883C302.677 179.005 303.806 176.537 303.806 174.499V173.694H297.257V200.516H303.806V188.822C303.806 181.365 310.724 179.005 317.373 179.005V172.89C312.121 172.89 309.17 173.372 306.326 175.572Z" fill="#1D1E22"/>
<path fill-rule="evenodd" clip-rule="evenodd" d="M347.258 175.25C345.38 176.698 344.788 179.595 344.413 181.902L343.234 181.741C343.553 179.434 344.307 176.055 342.48 174.553C341.033 173.319 338.943 172.89 336.529 172.89C333.791 172.89 332.126 173.319 330.734 174.714C329.069 176.323 328.695 179.649 327.996 181.902L326.873 181.526C327.515 179.273 328.588 176.377 328.588 174.016V173.694H321.989V200.516H328.588V186.086C328.588 180.668 330.572 178.2 334.489 178.2C338.138 178.2 339.854 180.614 339.854 186.086V200.516H346.453V186.086C346.453 180.668 348.062 178.2 351.924 178.2C355.461 178.2 357.126 180.614 357.126 186.086V200.516H363.725V182.116C363.725 176.001 359.378 172.89 353.801 172.89C351.119 172.89 348.917 174.016 347.258 175.25Z" fill="#1D1E22"/>
</svg>
