<svg width="400" height="300" viewBox="0 0 400 300" fill="none" xmlns="http://www.w3.org/2000/svg">
<path fill-rule="evenodd" clip-rule="evenodd" d="M0.00390625 199.769V100H79.8189V100.344C79.8189 121.878 62.5909 139.454 41.0616 139.884L39.9114 139.908H79.8189V140.252C79.8189 161.785 62.5909 179.361 41.0616 179.792L39.9114 179.815V199.769H0.00390625Z" fill="#1D1E22"/>
<path fill-rule="evenodd" clip-rule="evenodd" d="M120.168 167.316H127.097V145.647H155.031V139.603H127.097V123.977H156.211V117.933H120.168V167.316Z" fill="#1D1E22"/>
<path fill-rule="evenodd" clip-rule="evenodd" d="M177.143 129.8C172.868 129.8 168.888 130.389 164.539 131.495V137.097C168.667 136.139 172.868 135.623 176.553 135.623C184 135.623 186.723 137.613 186.723 144.099V145.057C182.229 144.762 179.132 144.688 177.29 144.688C165.276 144.688 160.338 148.226 160.338 156.26C160.338 164.221 165.129 167.98 174.269 167.98C180.089 167.98 183.775 166.505 186.283 163.484H186.723V167.316H193.433V145.941C193.433 134.37 188.862 129.8 177.143 129.8ZM167.045 156.26C167.045 151.691 170.067 149.848 177.658 149.848C179.798 149.848 183.406 149.995 186.723 150.216V151.912C186.723 158.84 183.114 162.304 175.448 162.304C169.551 162.304 167.045 160.462 167.045 156.26Z" fill="#1D1E22"/>
<path fill-rule="evenodd" clip-rule="evenodd" d="M215.325 152.059C220.925 153.165 224.61 153.975 224.61 157.513C224.61 160.683 221.59 162.157 213.994 162.157C209.572 162.157 205.298 161.641 201.321 160.683V166.284C205.518 167.39 209.649 167.98 214.291 167.98C225.495 167.98 231.315 164.589 231.315 157.145C231.315 148.153 222.916 146.752 216.205 145.499C212.008 144.688 207.361 143.951 207.361 140.045C207.361 137.097 209.94 135.623 217.168 135.623C221.513 135.623 225.567 136.139 229.329 137.097V131.495C225.347 130.389 221.442 129.8 216.943 129.8C205.963 129.8 200.656 133.19 200.656 140.413C200.656 149.774 209.429 150.88 215.325 152.059Z" fill="#1D1E22"/>
<path fill-rule="evenodd" clip-rule="evenodd" d="M254.461 162.157C249.522 162.157 248.268 160.83 248.268 154.86V136.212H261.166V130.463H248.268V120.881H241.562V130.463H236.183V136.212H241.562V155.155C241.562 164.884 244.659 167.98 253.284 167.98C256.084 167.98 257.926 167.537 261.535 166.874V161.42C258.663 161.936 256.601 162.157 254.461 162.157Z" fill="#1D1E22"/>
<path fill-rule="evenodd" clip-rule="evenodd" d="M283.206 122.208L266.105 167.316H273.921L278.047 156.186H302.442L306.572 167.316H314.383L297.282 122.208C296.177 119.333 294.262 117.27 290.208 117.27C286.226 117.27 284.24 119.333 283.206 122.208ZM280.258 150.142L289.174 125.967C289.543 125.009 290.06 124.935 290.208 124.935C290.429 124.935 290.945 125.009 291.242 125.967L300.23 150.142H280.258Z" fill="#1D1E22"/>
<path fill-rule="evenodd" clip-rule="evenodd" d="M356.247 149.332V148.447C356.247 135.77 350.868 129.8 339.443 129.8C333.255 129.8 330.378 131.569 327.799 134.517H327.282V130.463H320.576V181.32H327.282V163.262H327.799C330.378 166.211 333.255 167.98 339.443 167.98C350.868 167.98 356.247 162.009 356.247 149.332ZM327.282 149.111V148.669C327.282 139.603 330.527 135.623 338.338 135.623C346.154 135.623 349.542 139.603 349.542 148.669V149.111C349.542 158.177 346.154 162.157 338.338 162.157C330.527 162.157 327.282 158.177 327.282 149.111Z" fill="#1D1E22"/>
<path fill-rule="evenodd" clip-rule="evenodd" d="M399.365 149.332V148.447C399.365 135.77 393.986 129.8 382.561 129.8C376.373 129.8 373.496 131.569 370.917 134.517H370.4V130.463H363.695V181.32H370.4V163.262H370.917C373.496 166.211 376.373 167.98 382.561 167.98C393.986 167.98 399.365 162.009 399.365 149.332ZM370.4 149.111V148.669C370.4 139.603 373.645 135.623 381.456 135.623C389.272 135.623 392.66 139.603 392.66 148.669V149.111C392.66 158.177 389.272 162.157 381.456 162.157C373.645 162.157 370.4 158.177 370.4 149.111Z" fill="#1D1E22"/>
</svg>
