<svg width="400" height="300" viewBox="0 0 400 300" fill="none" xmlns="http://www.w3.org/2000/svg">
<path fill-rule="evenodd" clip-rule="evenodd" d="M53.6441 103.411C53.6441 96.0095 59.6536 90 67.0551 90C74.4567 90 80.4661 96.0095 80.4661 103.411H80.5533C87.9146 103.458 93.8772 109.449 93.8772 116.822C93.8772 124.224 87.8677 130.233 80.4661 130.233V130.318H134.11C134.11 157.689 113.609 180.258 87.1716 183.416V207.336C87.1716 209.193 85.671 210.699 83.8189 210.699H70.4079C68.5571 210.699 67.0551 209.192 67.0551 207.336C67.0551 205.48 68.5571 203.972 70.4079 203.972H80.4661V183.793H56.9968V207.336C56.9968 209.193 55.4962 210.699 53.6441 210.699H40.2331C38.3823 210.699 36.8803 209.192 36.8803 207.336C36.8803 205.48 38.3823 203.972 40.2331 203.972H50.2913V183.621C44.3771 182.942 38.829 180.278 34.5777 176.013C29.6116 171.032 26.822 164.276 26.822 157.231V130.318L0 103.411H53.6441ZM53.6441 116.528C61.0456 116.528 67.0551 122.555 67.0551 129.981C67.0551 137.405 61.0456 143.434 53.6441 143.434C46.2425 143.434 40.2331 137.405 40.2331 129.981C40.2331 122.555 46.2425 116.528 53.6441 116.528Z" fill="#1D1E22"/>
<path fill-rule="evenodd" clip-rule="evenodd" d="M187.627 140.714C198.734 140.714 204.417 135.671 205.439 127.303H198.356C197.444 130.468 195.352 133.955 187.466 133.955C180.493 133.955 175.128 129.18 175.128 121.134C175.128 113.034 180.546 108.313 187.466 108.313C194.977 108.313 197.015 111.8 197.873 114.965H204.953C204.204 107.776 198.84 101.554 187.413 101.554C176.308 101.554 168.101 109.922 168.101 121.08C168.101 132.292 176.416 140.714 187.627 140.714Z" fill="#1D1E22"/>
<path fill-rule="evenodd" clip-rule="evenodd" d="M219.076 114.75C217.467 116.091 216.774 118.881 216.02 120.866L214.897 120.437C215.645 118.452 216.718 115.931 216.718 113.838V100.964H210.175V139.909H216.718V126.23C216.718 121.08 220.367 118.774 224.659 118.774C228.576 118.774 230.453 121.08 230.453 126.23V139.909H237.047V121.51C237.047 115.394 232.812 112.283 227.341 112.283C223.854 112.283 221.334 112.819 219.076 114.75Z" fill="#1D1E22"/>
<path fill-rule="evenodd" clip-rule="evenodd" d="M242.736 109.064H249.871V102.358H242.736V109.064ZM243.11 139.909H249.603V113.087H243.11V139.909Z" fill="#1D1E22"/>
<path fill-rule="evenodd" clip-rule="evenodd" d="M254.481 126.337C254.481 135.081 260.382 140.714 269.233 140.767C277.816 140.714 282.376 135.456 283.237 130.199H276.207C276.051 130.789 274.117 134.545 269.021 134.545C264.087 134.491 260.974 131.058 260.974 126.283C261.03 121.455 263.981 118.451 268.809 118.451C274.011 118.451 275.889 122.206 276.051 122.743H283.075C282.538 117.754 277.816 112.282 268.965 112.282C260.276 112.282 254.481 117.593 254.481 126.337Z" fill="#1D1E22"/>
<path fill-rule="evenodd" clip-rule="evenodd" d="M296.81 119.739C295.307 121.027 294.34 123.333 293.536 125.157L292.412 124.675C293.267 122.851 294.34 120.598 294.34 118.613V101.018H287.741V139.909H294.34L294.234 129.663L296.861 127.357L307.165 139.963H315.368L301.314 123.494L312.579 113.141H304.371L296.81 119.739Z" fill="#1D1E22"/>
<path fill-rule="evenodd" clip-rule="evenodd" d="M168.101 200.463H175.499L180.115 187.374H192.079L197.119 200.463H204.467L189.983 162.858H181.937L168.101 200.463ZM191.218 182.117H180.758L185.155 172.139C185.641 171.012 185.373 169.457 185.373 168.276H186.608C186.608 169.457 186.34 171.012 186.82 172.139L191.218 182.117Z" fill="#1D1E22"/>
<path fill-rule="evenodd" clip-rule="evenodd" d="M207.261 194.026C207.261 198.21 210.48 200.517 216.593 200.517H220.56V194.401H217.235C214.771 194.401 213.855 193.704 213.855 191.505V161.625H207.261V194.026Z" fill="#1D1E22"/>
<path fill-rule="evenodd" clip-rule="evenodd" d="M246.153 197.834C247.226 196.6 247.438 194.401 247.919 192.899L249.103 193.274C248.617 194.776 247.65 196.708 247.65 198.317L247.6 200.516H254.199V173.694H247.6L247.65 175.733C247.65 177.342 248.617 179.22 249.103 180.775L247.974 181.151C247.438 179.595 247.226 177.396 246.097 176.216C244.163 174.123 241.375 172.89 237.782 172.89C229.791 172.89 224.159 178.951 224.159 186.944C224.159 194.937 229.791 201.375 237.782 201.375C241.375 201.375 244.163 200.034 246.153 197.834ZM230.752 186.944C230.752 182.385 233.703 179.005 238.156 179.005C243.04 179.005 245.667 182.224 245.667 186.944C245.505 191.343 242.554 195.259 238.156 195.259C233.703 195.259 230.752 191.45 230.752 186.944Z" fill="#1D1E22"/>
<path fill-rule="evenodd" clip-rule="evenodd" d="M269.326 175.572C267.661 176.806 266.806 179.488 266.001 181.365L264.872 180.883C265.677 179.005 266.806 176.537 266.806 174.499V173.694H260.257V200.516H266.806V188.822C266.806 181.365 273.724 179.005 280.373 179.005V172.89C275.121 172.89 272.17 173.372 269.326 175.572Z" fill="#1D1E22"/>
<path fill-rule="evenodd" clip-rule="evenodd" d="M310.258 175.25C308.38 176.698 307.788 179.595 307.413 181.902L306.234 181.741C306.553 179.434 307.307 176.055 305.48 174.553C304.033 173.319 301.943 172.89 299.529 172.89C296.791 172.89 295.126 173.319 293.734 174.714C292.069 176.323 291.695 179.649 290.996 181.902L289.873 181.526C290.515 179.273 291.588 176.377 291.588 174.016V173.694H284.989V200.516H291.588V186.086C291.588 180.668 293.572 178.2 297.489 178.2C301.138 178.2 302.854 180.614 302.854 186.086V200.516H309.453V186.086C309.453 180.668 311.062 178.2 314.924 178.2C318.461 178.2 320.126 180.614 320.126 186.086V200.516H326.725V182.116C326.725 176.001 322.378 172.89 316.801 172.89C314.119 172.89 311.917 174.016 310.258 175.25Z" fill="#1D1E22"/>
</svg>
