<svg width="400" height="300" viewBox="0 0 400 300" fill="none" xmlns="http://www.w3.org/2000/svg">
<path d="M75.0008 188.914C76.6541 188.914 78.2397 188.258 79.4084 187.089C83.0665 183.431 91.3846 175.113 96.5496 169.948C97.7183 168.779 99.3038 168.122 100.957 168.122C102.611 168.122 104.196 168.779 105.365 169.948C110.53 175.113 118.848 183.431 122.506 187.089C123.675 188.258 125.26 188.914 126.914 188.914C131.778 188.914 142.426 188.914 149.264 188.914C152.706 188.914 155.497 186.123 155.497 182.681C155.497 168.086 155.497 131.828 155.497 117.233C155.497 113.791 152.706 111 149.264 111C142.426 111 131.778 111 126.914 111C125.26 111 123.675 111.657 122.506 112.826C118.848 116.484 110.53 124.802 105.365 129.967C104.196 131.135 102.611 131.792 100.957 131.792C99.3038 131.792 97.7183 131.135 96.5496 129.967C91.3846 124.802 83.0665 116.484 79.4084 112.826C78.2397 111.657 76.6541 111 75.0008 111C73.1573 111 70.5955 111 68.2332 111C64.7909 111 62 113.791 62 117.233C62 131.828 62 168.086 62 182.681C62 186.123 64.7909 188.914 68.2332 188.914C70.5955 188.914 73.1573 188.914 75.0008 188.914ZM319.205 177.258C330.2 177.258 338.652 168.582 338.652 157.961C338.652 147.489 330.275 138.812 319.205 138.812C308.209 138.812 299.608 147.414 299.608 157.961C299.608 168.582 308.135 177.258 319.205 177.258ZM271.783 177.258C282.853 177.258 291.305 168.956 291.305 158.11V122.88H283.9L283.825 144.273C280.833 140.981 276.346 138.812 271.409 138.812C260.339 138.812 252.261 146.965 252.261 158.11C252.261 168.657 260.638 177.258 271.783 177.258ZM194.068 176.361V158.185C194.068 151.079 198.631 145.843 205.138 145.843C212.094 145.843 215.685 151.453 215.685 157.961V176.361H223.09V157.213C223.09 145.993 217.031 138.812 206.26 138.812C201.323 138.812 196.91 140.757 194.068 143.824V122.88H186.663V176.361H194.068ZM235.132 139.71V176.361H242.537V139.71H235.132ZM271.783 170.302C264.976 170.302 259.666 164.767 259.666 158.035C259.666 151.378 264.976 145.843 271.783 145.843C278.664 145.843 283.9 151.378 283.9 158.035C283.9 164.767 278.664 170.302 271.783 170.302ZM319.205 170.227C312.323 170.227 307.013 164.692 307.013 158.035C307.013 151.304 312.323 145.769 319.205 145.769C326.011 145.769 331.247 151.304 331.247 158.035C331.247 164.692 326.011 170.227 319.205 170.227ZM238.797 132.455C241.49 132.455 243.584 130.285 243.584 127.593C243.584 124.9 241.49 122.656 238.797 122.656C236.104 122.656 233.935 124.9 233.935 127.593C233.935 130.285 236.104 132.455 238.797 132.455Z" fill="#1D1E22"/>
</svg>
