<svg width="764" height="160" viewBox="0 0 764 160" fill="none" xmlns="http://www.w3.org/2000/svg">
<path d="M239.284 42H250.228V104.688H282.196V114H239.284V42ZM313 64.656C315.816 64.656 318.344 65.072 320.584 65.904C322.888 66.736 324.904 67.824 326.632 69.168C328.36 70.512 329.8 72.08 330.952 73.872C332.104 75.6 332.968 77.392 333.544 79.248C333.8 79.952 333.992 80.72 334.12 81.552C334.312 82.384 334.408 83.184 334.408 83.952C334.408 84.464 334.376 85.008 334.312 85.584C334.312 86.096 334.248 86.608 334.12 87.12L334.024 87.6L300.328 94.032C300.84 97.104 302.248 99.632 304.552 101.616C306.856 103.536 310.152 104.496 314.44 104.496C317.512 104.496 320.136 103.792 322.312 102.384C324.488 100.976 326.12 99.216 327.208 97.104L327.784 95.952L336.04 104.112L335.656 104.496C333.288 107.376 330.28 109.712 326.632 111.504C323.048 113.232 318.952 114.096 314.344 114.096C309.672 114.096 305.736 113.392 302.536 111.984C299.4 110.512 296.84 108.624 294.856 106.32C292.936 103.952 291.528 101.328 290.632 98.448C289.8 95.504 289.384 92.56 289.384 89.616C289.384 86.8 289.736 83.92 290.44 80.976C291.208 78.032 292.488 75.344 294.28 72.912C296.072 70.48 298.472 68.496 301.48 66.96C304.552 65.424 308.392 64.656 313 64.656ZM323.368 80.976C322.664 78.928 321.448 77.328 319.72 76.176C318.056 74.96 315.784 74.352 312.904 74.352C310.664 74.352 308.744 74.704 307.144 75.408C305.608 76.048 304.328 76.912 303.304 78C302.344 79.088 301.608 80.368 301.096 81.84C300.648 83.248 300.328 84.72 300.136 86.256L323.368 80.976ZM340.853 73.584V66L348.149 65.04V46.416H359.093V64.752H374.261V73.584H359.093V94.896C359.093 95.856 359.093 96.848 359.093 97.872C359.157 98.832 359.285 99.728 359.477 100.56C359.669 101.328 359.957 102 360.341 102.576C360.789 103.088 361.397 103.344 362.165 103.344C362.933 103.344 363.509 102.832 363.893 101.808C364.277 100.72 364.501 99.472 364.565 98.064C364.693 96.656 364.725 95.28 364.661 93.936C364.661 92.528 364.629 91.504 364.565 90.864L374.069 100.176V100.656C373.941 102.448 373.557 104.176 372.917 105.84C372.341 107.44 371.477 108.848 370.325 110.064C369.237 111.28 367.861 112.24 366.197 112.944C364.597 113.648 362.709 114 360.533 114C357.525 114 355.189 113.36 353.525 112.08C351.861 110.736 350.613 109.104 349.781 107.184C349.013 105.264 348.533 103.216 348.341 101.04C348.213 98.8 348.149 96.752 348.149 94.896V73.584H340.853ZM406.552 64.56C411.416 64.56 415.736 65.488 419.512 67.344C423.352 69.2 426.36 71.664 428.536 74.736L429.016 75.408L420.856 83.568C419.768 80.496 417.944 78.192 415.384 76.656C412.824 75.056 409.848 74.256 406.456 74.256C403.704 74.256 401.464 74.768 399.736 75.792C398.008 76.816 397.144 78.224 397.144 80.016C397.144 81.488 397.72 82.544 398.872 83.184C400.088 83.824 401.624 84.144 403.48 84.144L413.272 84.24C418.776 84.304 422.936 85.648 425.752 88.272C428.568 90.832 429.976 94.096 429.976 98.064C429.976 100.432 429.464 102.608 428.44 104.592C427.48 106.512 426.072 108.176 424.216 109.584C422.424 110.992 420.28 112.08 417.784 112.848C415.288 113.616 412.536 114 409.528 114C407.352 114 405.08 113.776 402.712 113.328C400.408 112.88 398.2 112.272 396.088 111.504C393.976 110.672 392.056 109.68 390.328 108.528C388.664 107.312 387.32 105.936 386.296 104.4L385.816 103.824L394.456 95.28L395.416 96.912C395.992 97.872 396.76 98.768 397.72 99.6C398.68 100.368 399.768 101.04 400.984 101.616C402.2 102.192 403.512 102.64 404.92 102.96C406.328 103.28 407.736 103.44 409.144 103.44C411.576 103.44 413.688 102.896 415.48 101.808C417.336 100.72 418.264 99.152 418.264 97.104C418.264 95.952 417.944 95.056 417.304 94.416C416.728 93.712 415.992 93.2 415.096 92.88C414.264 92.56 413.368 92.336 412.408 92.208C411.512 92.08 410.712 92.016 410.008 92.016L408.184 91.92H402.616C400.184 91.92 397.944 91.696 395.896 91.248C393.848 90.736 392.056 90 390.52 89.04C389.048 88.08 387.896 86.864 387.064 85.392C386.232 83.856 385.816 82.032 385.816 79.92C385.816 77.488 386.36 75.344 387.448 73.488C388.536 71.568 390.008 69.968 391.864 68.688C393.72 67.344 395.896 66.32 398.392 65.616C400.952 64.912 403.672 64.56 406.552 64.56ZM465.285 42C468.357 42 471.237 42.416 473.925 43.248C476.677 44.016 479.045 45.2 481.029 46.8C483.077 48.336 484.677 50.288 485.829 52.656C487.045 55.024 487.653 57.808 487.653 61.008C487.653 64.272 487.109 67.152 486.021 69.648C484.997 72.144 483.493 74.256 481.509 75.984C479.525 77.712 477.157 79.024 474.405 79.92C471.717 80.816 468.677 81.264 465.285 81.264H449.541V114H438.597V42H465.285ZM449.541 72.336H465.285C469.253 72.336 472.293 71.44 474.405 69.648C476.581 67.856 477.669 65.072 477.669 61.296C477.669 57.712 476.549 55.088 474.309 53.424C472.133 51.696 469.125 50.832 465.285 50.832H449.541V72.336ZM494.847 64.848H503.775L503.967 65.232C504.863 66.256 505.535 67.376 505.983 68.592C506.431 69.744 506.751 70.896 506.943 72.048L514.527 64.56H514.911C515.871 64.368 516.863 64.272 517.887 64.272C520.447 64.272 522.623 64.72 524.415 65.616C526.207 66.512 527.647 67.664 528.735 69.072C529.887 70.416 530.719 71.92 531.231 73.584C531.743 75.248 531.999 76.848 531.999 78.384V81.36L521.631 91.536L522.015 88.944C522.143 88.048 522.239 87.216 522.303 86.448C522.367 85.616 522.399 84.784 522.399 83.952C522.399 82.8 522.303 81.68 522.111 80.592C521.983 79.44 521.631 78.416 521.055 77.52C520.543 76.624 519.807 75.888 518.847 75.312C517.951 74.736 516.735 74.448 515.199 74.448C513.407 74.448 512.031 74.8 511.071 75.504C510.111 76.144 509.375 77.04 508.863 78.192C508.287 79.28 507.935 80.496 507.807 81.84C507.679 83.184 507.615 84.4 507.615 85.488V114H496.671V78.384C496.671 76.272 496.575 74.16 496.383 72.048C496.255 69.936 495.839 67.856 495.135 65.808L494.847 64.848ZM562.172 63.696C566.204 63.696 569.66 64.432 572.54 65.904C575.484 67.312 577.884 69.232 579.74 71.664C581.596 74.032 582.94 76.784 583.772 79.92C584.668 82.992 585.116 86.192 585.116 89.52C585.116 92.848 584.668 96.016 583.772 99.024C582.876 102.032 581.5 104.688 579.644 106.992C577.788 109.232 575.42 111.024 572.54 112.368C569.66 113.648 566.204 114.288 562.172 114.288C558.14 114.288 554.684 113.648 551.804 112.368C548.924 111.024 546.556 109.232 544.7 106.992C542.844 104.688 541.468 102.032 540.572 99.024C539.676 96.016 539.228 92.848 539.228 89.52C539.228 86.192 539.644 82.992 540.476 79.92C541.372 76.784 542.748 74.032 544.604 71.664C546.46 69.232 548.828 67.312 551.708 65.904C554.652 64.432 558.14 63.696 562.172 63.696ZM562.172 104.4C564.54 104.4 566.524 104.016 568.124 103.248C569.724 102.48 571.004 101.424 571.964 100.08C572.924 98.736 573.596 97.168 573.98 95.376C574.364 93.584 574.556 91.632 574.556 89.52C574.556 87.472 574.364 85.488 573.98 83.568C573.596 81.648 572.924 79.952 571.964 78.48C571.004 77.008 569.724 75.824 568.124 74.928C566.524 74.032 564.54 73.584 562.172 73.584C559.804 73.584 557.82 74.032 556.22 74.928C554.62 75.824 553.34 77.008 552.38 78.48C551.42 79.952 550.748 81.648 550.364 83.568C549.98 85.488 549.788 87.472 549.788 89.52C549.788 91.632 549.98 93.584 550.364 95.376C550.748 97.168 551.42 98.736 552.38 100.08C553.34 101.424 554.62 102.48 556.22 103.248C557.82 104.016 559.804 104.4 562.172 104.4ZM585.091 124.08L594.595 114.672C594.531 115.184 594.467 116.112 594.403 117.456C594.339 118.864 594.371 120.272 594.499 121.68C594.627 123.152 594.883 124.432 595.267 125.52C595.715 126.672 596.387 127.248 597.283 127.248C598.115 127.248 598.723 126.96 599.107 126.384C599.555 125.872 599.843 125.168 599.971 124.272C600.099 123.44 600.163 122.544 600.163 121.584C600.163 120.624 600.163 119.696 600.163 118.8V65.328H611.011V118.8C611.011 120.528 610.883 122.48 610.627 124.656C610.435 126.896 609.891 128.976 608.995 130.896C608.163 132.88 606.883 134.544 605.155 135.888C603.427 137.296 601.027 138 597.955 138C596.099 138 594.403 137.616 592.867 136.848C591.331 136.144 590.019 135.152 588.931 133.872C587.843 132.656 586.979 131.248 586.339 129.648C585.635 128.048 585.219 126.352 585.091 124.56V124.08ZM599.491 55.92V42H611.875V55.92H599.491ZM645.063 64.656C647.879 64.656 650.407 65.072 652.647 65.904C654.951 66.736 656.967 67.824 658.695 69.168C660.423 70.512 661.863 72.08 663.015 73.872C664.167 75.6 665.031 77.392 665.607 79.248C665.863 79.952 666.055 80.72 666.183 81.552C666.375 82.384 666.471 83.184 666.471 83.952C666.471 84.464 666.439 85.008 666.375 85.584C666.375 86.096 666.311 86.608 666.183 87.12L666.087 87.6L632.391 94.032C632.903 97.104 634.311 99.632 636.615 101.616C638.919 103.536 642.215 104.496 646.503 104.496C649.575 104.496 652.199 103.792 654.375 102.384C656.551 100.976 658.183 99.216 659.271 97.104L659.847 95.952L668.103 104.112L667.719 104.496C665.351 107.376 662.343 109.712 658.695 111.504C655.111 113.232 651.015 114.096 646.407 114.096C641.735 114.096 637.799 113.392 634.599 111.984C631.463 110.512 628.903 108.624 626.919 106.32C624.999 103.952 623.591 101.328 622.695 98.448C621.863 95.504 621.447 92.56 621.447 89.616C621.447 86.8 621.799 83.92 622.503 80.976C623.271 78.032 624.551 75.344 626.343 72.912C628.135 70.48 630.535 68.496 633.543 66.96C636.615 65.424 640.455 64.656 645.063 64.656ZM655.431 80.976C654.727 78.928 653.511 77.328 651.783 76.176C650.119 74.96 647.847 74.352 644.967 74.352C642.727 74.352 640.807 74.704 639.207 75.408C637.671 76.048 636.391 76.912 635.367 78C634.407 79.088 633.671 80.368 633.159 81.84C632.711 83.248 632.391 84.72 632.199 86.256L655.431 80.976ZM672.916 89.616C672.916 86.8 673.268 83.92 673.972 80.976C674.676 77.968 675.924 75.248 677.716 72.816C679.508 70.32 681.908 68.272 684.916 66.672C687.988 65.072 691.86 64.272 696.532 64.272C699.732 64.272 702.612 64.752 705.172 65.712C707.796 66.608 710.068 67.856 711.988 69.456C713.908 70.992 715.412 72.784 716.5 74.832C717.652 76.88 718.324 79.024 718.516 81.264V81.552L709.78 90.288V88.176C709.78 86.384 709.556 84.624 709.108 82.896C708.724 81.104 708.02 79.536 706.996 78.192C705.972 76.784 704.596 75.664 702.868 74.832C701.204 73.936 699.092 73.488 696.532 73.488C693.972 73.488 691.86 74 690.196 75.024C688.532 75.984 687.22 77.264 686.26 78.864C685.3 80.4 684.628 82.128 684.244 84.048C683.86 85.904 683.668 87.696 683.668 89.424C683.668 91.216 683.828 93.04 684.148 94.896C684.532 96.752 685.204 98.448 686.164 99.984C687.124 101.456 688.436 102.672 690.1 103.632C691.764 104.592 693.94 105.072 696.628 105.072C699.7 105.072 702.228 104.304 704.212 102.768C706.196 101.232 707.732 99.408 708.82 97.296L709.396 96.144L717.652 104.304L717.268 104.688C714.836 107.696 712.02 110.064 708.82 111.792C705.684 113.456 701.652 114.288 696.724 114.288C692.052 114.288 688.18 113.552 685.108 112.08C682.1 110.544 679.668 108.592 677.812 106.224C676.02 103.856 674.74 101.2 673.972 98.256C673.268 95.312 672.916 92.432 672.916 89.616ZM723.353 73.584V66L730.649 65.04V46.416H741.593V64.752H756.761V73.584H741.593V94.896C741.593 95.856 741.593 96.848 741.593 97.872C741.657 98.832 741.785 99.728 741.977 100.56C742.169 101.328 742.457 102 742.841 102.576C743.289 103.088 743.897 103.344 744.665 103.344C745.433 103.344 746.009 102.832 746.393 101.808C746.777 100.72 747.001 99.472 747.065 98.064C747.193 96.656 747.225 95.28 747.161 93.936C747.161 92.528 747.129 91.504 747.065 90.864L756.569 100.176V100.656C756.441 102.448 756.057 104.176 755.417 105.84C754.841 107.44 753.977 108.848 752.825 110.064C751.737 111.28 750.361 112.24 748.697 112.944C747.097 113.648 745.209 114 743.033 114C740.025 114 737.689 113.36 736.025 112.08C734.361 110.736 733.113 109.104 732.281 107.184C731.513 105.264 731.033 103.216 730.841 101.04C730.713 98.8 730.649 96.752 730.649 94.896V73.584H723.353Z" fill="black"/>
<path fill-rule="evenodd" clip-rule="evenodd" d="M95.966 95.966L63.977 159.943V95.966L0 79.971L63.977 63.977V0L95.966 63.977L127.955 0V63.977L191.932 79.971L127.955 95.966V159.943L95.966 95.966Z" fill="#3257A5"/>
</svg>
